<svg xmlns="http://www.w3.org/2000/svg" viewBox="0 0 375.152 51.154">
  <g id="Group_554" data-name="Group 554" transform="translate(-7.791 -5.168)">
    <rect id="Rectangle_240" data-name="Rectangle 240" width="1.92" height="20.244" transform="translate(131.583 18.426)" fill="#111918"/>
    <path id="Path_420" data-name="Path 420" d="M626.82,64.326h6.368V82.88h1.918V64.326H641.5V62.634H626.82Z" transform="translate(-476.224 -44.209)" fill="#111918"/>
    <rect id="Rectangle_241" data-name="Rectangle 241" width="1.918" height="20.244" transform="translate(182.37 18.425)" fill="#111918"/>
    <path id="Path_421" data-name="Path 421" d="M7.791,64.326h6.367V82.88h1.921V64.326h6.395V62.634H7.791Z" transform="translate(0 -44.209)" fill="#111918"/>
    <path id="Path_422" data-name="Path 422" d="M158.922,72.23a5.237,5.237,0,0,0,1.519-3.9,5.435,5.435,0,0,0-3.556-5.363c-1.263-.43-2.151-.43-5.678-.459h-5.676V82.784h1.917V64.23h4.762a17.9,17.9,0,0,1,3.383.145,3.6,3.6,0,0,1,2.956,3.87,3.5,3.5,0,0,1-2.926,3.7,19.49,19.49,0,0,1-3.413.2v1.666l6.4,8.975h2.408l-6.566-8.975a6.961,6.961,0,0,0,4.474-1.579" transform="translate(-105.965 -44.114)" fill="#111918"/>
    <path id="Path_423" data-name="Path 423" d="M402.962,79.954,390.889,62.633h-1.864V82.879h1.864V65.387l11.9,17.492h1.891V62.633H402.79Z" transform="translate(-293.287 -44.208)" fill="#111918"/>
    <rect id="Rectangle_242" data-name="Rectangle 242" width="1.922" height="20.244" transform="translate(73.63 18.426)" fill="#111918"/>
    <path id="Path_424" data-name="Path 424" d="M879.239,29.844a6.032,6.032,0,0,0-7.963-5.725,18.389,18.389,0,0,0,2.087-6.215C875.171-.061,844.9,2.346,844.9,16.612A6.17,6.17,0,1,0,848.824,11c7.4-7.509,24.624-5.453,23.056,7.055a18.166,18.166,0,0,1-3.4,8.027,6.32,6.32,0,0,0-1.323,3.809,5.606,5.606,0,0,0,1.868,4.32c6.548,6,3.319,20.813-13.384,20.813-5.136,0-9.02-1.751-11.064-4a6.041,6.041,0,1,0,2.645-11.473,6.282,6.282,0,0,0-6.358,6.471c0,14.312,32.948,14.472,32.948-4.276a10.347,10.347,0,0,0-1.84-5.98,6.042,6.042,0,0,0,7.269-5.914" transform="translate(-640.889 0)" fill="#1b6a55"/>
    <path id="Path_425" data-name="Path 425" d="M1577.049,62.632l-5.583,8.23-5.583-8.23h-2.2l6.684,9.853-7.052,10.4h2.2l5.951-8.773,5.951,8.773h2.2l-7.052-10.4,6.684-9.853Z" transform="translate(-1196.676 -44.207)" fill="#111918"/>
    <path id="Path_426" data-name="Path 426" d="M1467.591,81.219h-7.328V73.227h6.079V71.543h-6.079V64.331h7.328V62.647h-9.261V82.9h9.261Z" transform="translate(-1115.912 -44.219)" fill="#111918"/>
    <path id="Path_427" data-name="Path 427" d="M1086.144,62.634v1.879h4.819V76.864a17.548,17.548,0,0,1-.142,3.316,3.526,3.526,0,0,1-3.794,2.9,4.651,4.651,0,0,1-.883-.083v1.889a6.588,6.588,0,0,0,.8.049,5.328,5.328,0,0,0,5.257-3.486c.421-1.238.421-2.109.449-5.567V62.634Z" transform="translate(-829.586 -44.209)" fill="#111918"/>
    <path id="Path_442" data-name="Path 442" d="M1339.377,72.288a5.236,5.236,0,0,0,1.52-3.9,5.435,5.435,0,0,0-3.556-5.363c-1.263-.43-2.152-.43-5.679-.459h-5.676V82.842h1.917V64.288h4.762a17.9,17.9,0,0,1,3.383.145A3.6,3.6,0,0,1,1339,68.3a3.5,3.5,0,0,1-2.926,3.7,19.493,19.493,0,0,1-3.413.2v1.666l6.4,8.975h2.408l-6.566-8.975a6.96,6.96,0,0,0,4.474-1.579" transform="translate(-1014.099 -44.158)" fill="#111918"/>
    <path id="Path_443" data-name="Path 443" d="M1203.211,62.51v1.879h1.3V75.818c-.035,2.5-.035,2.448-.18,3.009-.489,1.919-2.451,3.021-4.859,3.047-2.408-.026-4.37-1.128-4.859-3.047-.145-.561-.145-.506-.18-3.009l0-13.308h-1.821V74.835c.035,3.458.035,4.329.568,5.567,1.391,3.11,4.894,3.458,6.293,3.483,1.4-.025,4.9-.373,6.293-3.483.532-1.238.532-2.109.568-5.567V62.51Z" transform="translate(-911.49 -44.114)" fill="#111918"/>
    <path id="Path_444" data-name="Path 444" d="M62.615,64.283v.592H64.29v4.481h.67V64.875h1.7l-.091-.592Z" transform="translate(-5.008 -17.625)" fill="#111918"/>
    <path id="Path_445" data-name="Path 445" d="M72.329,64.211,70.3,69.343h.661l.572-1.484h2.275l.592,1.553.66-.151-2.015-5.05Zm-.571,3.057.912-2.366h.02l.9,2.366Z" transform="translate(-6.467 -17.611)" fill="#111918"/>
    <path id="Path_446" data-name="Path 446" d="M80.607,68.775V64.283h-.672v5.074h2.7l-.089-.582Z" transform="translate(-8.293 -17.625)" fill="#111918"/>
    <path id="Path_447" data-name="Path 447" d="M87.824,68.775V64.283h-.671v5.074H89.86l-.09-.582Z" transform="translate(-9.662 -17.625)" fill="#111918"/>
    <rect id="Rectangle_243" data-name="Rectangle 243" width="0.672" height="5.074" transform="translate(83.381 46.658)" fill="#111918"/>
    <path id="Path_448" data-name="Path 448" d="M103.1,68.224l-2.668-3.941h-.682v5.074h.613v-4.09l2.767,4.09h.582V64.283H103.1Z" transform="translate(-12.051 -17.625)" fill="#111918"/>
    <path id="Path_449" data-name="Path 449" d="M112.43,68.224l-2.666-3.941h-.683v5.074h.613v-4.09l2.767,4.09h.582V64.283h-.612Z" transform="translate(-13.822 -17.625)" fill="#111918"/>
    <path id="Path_450" data-name="Path 450" d="M132.243,65.768c0-.913-.692-1.485-1.874-1.485h-1.443v5.074h.671V67.292h.743l1.542,2.116.692-.143-1.515-2.054A1.441,1.441,0,0,0,132.243,65.768Zm-2.647.982V64.866h.743c.831,0,1.233.342,1.233.925s-.392.96-1.224.96H129.6Z" transform="translate(-17.586 -17.625)" fill="#111918"/>
    <rect id="Rectangle_244" data-name="Rectangle 244" width="0.673" height="5.074" transform="translate(118.131 46.658)" fill="#111918"/>
    <path id="Path_451" data-name="Path 451" d="M144.627,67.211h1.164v1.372a2.048,2.048,0,0,1-1.062.28c-1.154,0-1.786-.82-1.786-2.065,0-1.223.671-2.065,1.724-2.065a2.336,2.336,0,0,1,1.434.492l.1-.643a2.735,2.735,0,0,0-1.514-.41,2.4,2.4,0,0,0-2.427,2.637,2.363,2.363,0,0,0,2.437,2.617,3.15,3.15,0,0,0,1.734-.523V66.619h-1.912Z" transform="translate(-20.115 -17.604)" fill="#111918"/>
    <path id="Path_452" data-name="Path 452" d="M152.926,64.211,150.9,69.343h.663l.57-1.485h2.275L155,69.412l.662-.151-2.015-5.05Zm-.57,3.057.911-2.366h.019l.9,2.366Z" transform="translate(-21.754 -17.611)" fill="#111918"/>
    <path id="Path_453" data-name="Path 453" d="M172.219,68.579,170.575,64.2l-.673.142,1.987,5.083h.6l2.022-5.155h-.682Z" transform="translate(-25.357 -17.609)" fill="#111918"/>
    <rect id="Rectangle_245" data-name="Rectangle 245" width="0.673" height="5.074" transform="translate(152.26 46.658)" fill="#111918"/>
    <path id="Path_454" data-name="Path 454" d="M185.421,68.775V64.283h-.672v5.074h2.709l-.092-.582Z" transform="translate(-28.172 -17.625)" fill="#111918"/>
    <path id="Path_455" data-name="Path 455" d="M195.318,68.224l-2.667-3.941h-.684v5.074h.614v-4.09l2.766,4.09h.581V64.283h-.61Z" transform="translate(-29.541 -17.625)" fill="#111918"/>
    <rect id="Rectangle_246" data-name="Rectangle 246" width="0.674" height="5.074" transform="translate(170.029 46.658)" fill="#111918"/>
    <path id="Path_456" data-name="Path 456" d="M209.9,67.4c0,.914-.462,1.463-1.322,1.463s-1.3-.6-1.3-1.493V64.284h-.652v3.149a1.839,1.839,0,0,0,1.956,2.015,1.866,1.866,0,0,0,2-2.057V64.284H209.9V67.4Z" transform="translate(-32.32 -17.625)" fill="#111918"/>
    <path id="Path_457" data-name="Path 457" d="M217.238,66.415c-.822-.283-1.092-.452-1.092-.894,0-.411.388-.753.97-.753a2.752,2.752,0,0,1,1.315.362l.111-.633a3.3,3.3,0,0,0-1.394-.3,1.474,1.474,0,0,0-1.626,1.394c0,.753.453,1.063,1.526,1.435.822.29,1.1.5,1.1.961,0,.483-.432.853-1.131.853a3.879,3.879,0,0,1-1.584-.422l-.1.623a4.266,4.266,0,0,0,1.643.36c1.075,0,1.8-.6,1.8-1.482C218.771,67.174,218.357,66.8,217.238,66.415Z" transform="translate(-33.973 -17.609)" fill="#111918"/>
  </g>
</svg>
