<svg width="200" height="35" viewBox="0 0 200 35" fill="none" xmlns="http://www.w3.org/2000/svg">
<path d="M19.4245 34.9789C7.50257 34.9789 0 28.0169 0 17.4895C0 6.96203 7.48202 0 19.4245 0C30.0925 0 37.1429 5.48523 37.9445 12.9747H29.1059C28.037 8.92405 24.7482 6.81435 19.4245 6.81435C12.9702 6.81435 8.92086 10.865 8.92086 17.4895C8.92086 24.1139 12.9496 28.1224 19.4245 28.1224C25.1182 28.1224 28.6742 25.5485 29.2086 21.2236H38.0884C37.2251 29.4093 30.0925 34.9789 19.4245 34.9789Z" fill="#D71022"/>
<path d="M50.4008 19.9367L36.259 0.864979H46.5776L54.6557 12.7426L62.631 0.864979H72.9085L58.52 19.9156V34.0928H50.4008V19.9367Z" fill="#D71022"/>
<path d="M75.3957 0.864979H96.3412C103.618 0.864979 107.235 3.62869 107.235 9.15612C107.235 12.384 105.714 14.9156 102.837 16.4346C106.557 17.6793 108.489 20.4852 108.489 24.6203C108.489 30.3797 104.687 34.1139 97.9445 34.1139H75.3957V0.864979ZM83.5149 7.67933V14.1772H93.1141C96.9168 14.1772 98.7667 13.5865 98.7667 10.7806C98.7667 8.20675 96.9784 7.65823 93.1141 7.65823L83.5149 7.67933ZM94.3268 27.2996C98.1295 27.2996 99.9794 26.8776 99.9794 23.8397C99.9794 21.0338 98.1912 20.0211 94.3268 20.0211H83.5149V27.2996H94.3268Z" fill="#D71022"/>
<path d="M174.347 22.5949C174.347 22.6793 174.347 22.827 174.347 22.9114C174.347 26.6034 177.533 28.6709 183.762 28.6709C188.551 28.6709 191.161 27.1519 191.161 24.5781C191.161 22.0464 189.147 21.4557 184.789 20.9916L179.054 20.4008C170.791 19.5359 166.804 16.6667 166.804 11.0549C166.804 4.78903 172.641 0 182.405 0C192.785 0 198.561 4.2827 198.561 10.8228C198.561 10.9072 198.561 11.0127 198.561 11.097H190.483C190.134 7.78481 187.482 6.11814 182.549 6.11814C177.883 6.11814 175.375 7.59494 175.375 9.93671C175.375 12.4262 177.431 12.7426 181.932 13.2489L187.934 13.903C196.095 14.8312 200 17.8059 200 23.6709C200 30.9916 194.162 35 182.775 35C171.84 35 166.043 30.6751 166.043 23.3122C166.043 23.0802 166.043 22.8481 166.043 22.616H174.347V22.5949Z" fill="#D71022"/>
<path d="M147.585 15.0633H139.794L154.532 34.1139H163.083L152.21 20.0633L152.189 20.0422C157.266 20.0422 162.795 17.3418 162.795 11.1603C162.795 4.9789 158.623 0.886076 150.195 0.886076H111.942V34.135H147.811L142.59 27.3207H120.062V20.0211H137.02L131.799 13.2068H120.062V7.67933H147.235C151.901 7.67933 154.183 7.95359 154.183 11.1392C154.183 14.2194 151.942 15.0633 147.585 15.0633Z" fill="#D71022"/>
</svg>
