<svg width="1187" height="304" viewBox="0 0 1187 304" fill="none" xmlns="http://www.w3.org/2000/svg">
<g clip-path="url(#clip0_5060_8395)">
<path d="M0 303.42C0 303.42 53.39 283.47 109.23 215.78L99.59 204.44C64.54 250.76 28.05 285.07 0.26 303.42M169.4 78.5301L191.31 50.5801C176.21 25.5501 161.46 11.0601 140.61 4.16008C132.9 1.62008 98.43 -6.95992 71.09 11.8701C33.21 37.8901 29 83.7401 68.52 131.22C107.46 178 194.23 274.99 204.22 290.05C204.22 290.05 240.43 232.06 255.62 208.61L221.73 242.34C219.83 240.06 106.59 111.1 101.64 106.06C57.37 61.0801 78.7 19.3201 104.85 16.8101C131 14.3001 143.69 37.6601 156.25 57.0301C160.94 63.9501 165.23 71.1201 169.1 78.5201M345.8 86.0701C353.7 64.4501 351.17 40.8001 334.17 21.8201C313.22 -1.37992 277.02 -3.87992 254.72 11.2201C243.64 18.7101 235.19 27.0901 221.6 44.0501C209.75 58.8601 152.27 133.2 152.27 133.07L162.29 143.99C174.56 129.37 220.47 68.8501 229.76 58.2101C239.05 47.5701 250.1 33.8601 266 32.1601C296.58 28.9501 324.79 54.0101 315.12 93.9401C310.56 112.67 285.76 158.19 285.76 158.19C301.82 137.44 338.32 106.21 345.8 85.8401M416.16 256.46C390.75 273.29 350.88 241.87 316.99 207.92C281.36 172.2 235.52 115.24 225.08 101.9L223.63 100.04L201.14 128.95L202.52 130.72C253.92 197.77 337.23 293.44 374.01 288.88L416.22 256.43L416.16 256.46Z" fill="#007864"/>
<path d="M1110.14 148.85L1121.9 117.23L1133.5 148.85H1110.14ZM1070.25 196.53C1075.34 196.53 1080.58 196.37 1084.08 196.21L1087.1 196.05C1089.17 195.89 1091.87 196.21 1094.41 196.37C1097.11 196.53 1099.97 196.53 1102.2 196.53C1105.7 196.53 1106.33 194.78 1106.33 193.35C1106.33 190.49 1103.47 190.49 1102.52 190.49H1100.3C1096.33 190.49 1096.33 188.9 1096.33 187.79C1096.33 186.36 1097.12 183.02 1098.4 179.69L1106.19 159.35L1137.5 159.19L1148.94 189.54C1149.1 190.02 1149.1 190.18 1149.1 190.33C1148.15 190.49 1145.44 190.81 1145.44 193.35C1145.44 195.89 1148.14 196.21 1150.68 196.21H1151.47C1162.91 196.21 1173.4 196.53 1178.49 196.53C1183.1 196.53 1186.75 196.53 1186.75 193.35C1186.75 192.08 1186.11 190.49 1183.09 190.49C1181.34 190.49 1179.28 190.33 1177.53 190.01C1175.62 189.69 1171.81 188.58 1166.25 175.55C1161.01 163.31 1151.31 139 1143.52 119.45C1137.48 104.35 1132.4 91.3198 1130.81 87.8298C1129.38 84.6498 1128.11 82.2698 1125.57 82.2698C1122.87 82.2698 1121.6 85.1298 1120.01 89.0998L1084.25 178.57C1081.39 185.72 1078.85 189.54 1073.44 190.33C1072.33 190.49 1070.42 190.49 1069.31 190.49C1066.13 190.49 1065.81 192.71 1065.81 193.35C1065.81 196.53 1069.15 196.53 1070.26 196.53H1070.25ZM1003.34 199.55C1006.04 199.55 1007.31 196.69 1008.9 192.72L1043.86 103.25C1046.72 96.0998 1049.26 92.2798 1054.67 91.4898C1055.78 91.3298 1057.69 91.3298 1058.8 91.3298C1061.98 91.3298 1062.3 89.1098 1062.3 88.4698C1062.3 85.2898 1058.96 85.2898 1057.85 85.2898C1052.76 85.2898 1047.52 85.4498 1044.02 85.6098L1041 85.7698C1038.93 85.9298 1036.23 85.6098 1033.69 85.4498C1030.99 85.2898 1028.13 85.2898 1025.9 85.2898C1022.4 85.2898 1021.77 87.0398 1021.77 88.4698C1021.77 91.3298 1024.63 91.3298 1025.58 91.3298H1027.8C1031.77 91.3298 1031.77 92.9198 1031.77 94.0298C1031.77 95.4598 1030.98 98.7998 1029.7 102.13L1006.97 164.59C990.918 119.77 984.398 102.45 982.018 95.7798C981.068 93.2398 982.498 91.4898 985.198 91.4898H986.948C988.218 91.4898 990.608 90.8498 990.608 88.4698C990.608 85.9298 987.908 85.6098 985.368 85.6098H978.218C966.778 85.6098 956.288 85.2898 951.198 85.2898C946.588 85.2898 942.938 85.2898 942.938 88.4698C942.938 89.7398 943.578 91.3298 946.598 91.3298C948.348 91.3298 950.408 91.4898 952.158 91.8098C954.068 92.1298 958.198 93.2398 963.438 106.27C968.368 118.51 977.578 142.82 985.368 162.37C991.408 177.47 996.488 190.5 998.078 193.99C999.508 197.17 1000.78 199.55 1003.32 199.55H1003.34ZM871.118 196.53C874.458 196.53 878.748 196.53 882.558 196.37C885.418 196.21 887.798 196.21 889.228 196.21C890.818 196.21 893.038 196.21 895.898 196.37C900.348 196.69 905.908 196.53 911.788 196.53C915.128 196.53 916.238 194.94 916.238 193.51C916.238 192.72 915.918 190.65 912.268 190.65C910.198 190.65 907.028 190.33 905.118 190.01C902.258 189.53 901.308 188.42 900.828 184.61C900.038 178.57 900.188 167.45 900.188 153.46V128.35C900.188 106.74 900.188 102.76 900.508 98.3098C900.828 93.2198 901.938 92.1098 904.478 91.6398C906.068 91.3198 907.178 91.3198 908.448 91.3198C911.948 91.3198 912.418 89.4098 912.418 88.1398C912.418 86.2298 910.828 85.2798 907.808 85.2798C904.628 85.2798 900.658 85.4398 897.158 85.5998C894.298 85.7598 891.758 85.7598 890.168 85.7598C888.258 85.7598 885.238 85.7598 882.068 85.5998C878.258 85.4398 874.278 85.2798 871.418 85.2798C869.828 85.2798 866.178 85.2798 866.178 88.1398C866.178 89.4098 866.818 91.3198 870.308 91.3198C872.058 91.3198 873.808 91.4798 875.078 91.7998C876.668 92.2798 878.258 93.0698 878.578 98.3198C878.898 102.77 878.898 106.74 878.898 128.36V153.47C878.898 167.45 878.898 178.58 878.258 184.46C877.778 188.75 876.828 189.55 875.398 190.02C874.288 190.34 872.698 190.66 870.468 190.66C866.968 190.66 866.498 192.41 866.498 193.52C866.498 194.47 866.978 196.54 871.108 196.54L871.118 196.53ZM816.768 197.01C824.078 197.01 826.308 196.37 827.578 191.92C828.848 187.63 829.798 176.82 829.798 175.07C829.798 173.8 829.798 170.94 826.938 170.94C825.028 170.94 823.918 172.21 823.598 174.6C823.278 176.98 821.848 180.64 820.258 182.23C817.238 185.41 812.468 185.57 804.838 185.57C793.868 185.57 790.538 184.62 788.628 182.87C786.248 180.8 786.248 170 786.248 153.47V128.36C786.248 106.75 786.088 102.77 786.408 98.3198C786.728 93.2298 787.838 92.1198 790.378 91.6498C791.968 91.3298 794.188 91.3298 795.618 91.3298C798.478 91.3298 799.908 90.3798 799.908 88.3098C799.908 85.2898 796.408 85.2898 795.138 85.2898C792.118 85.2898 787.348 85.4498 783.218 85.6098C780.038 85.7698 777.178 85.7698 775.748 85.7698C773.998 85.7698 771.458 85.7698 768.438 85.6098C764.468 85.4498 759.858 85.2898 756.038 85.2898C754.608 85.2898 751.268 85.2898 751.268 88.3098C751.268 89.7398 751.908 91.3298 755.398 91.3298C757.148 91.3298 758.738 91.4898 759.688 91.6498C763.348 92.4398 764.298 93.7198 764.618 98.3198C764.938 102.77 764.778 106.74 764.778 128.36V153.47C764.778 166.5 764.938 177.78 764.138 183.66C763.498 188.27 762.868 189.54 761.278 190.02C760.168 190.34 758.578 190.66 756.508 190.66C753.008 190.66 752.538 192.41 752.538 193.52C752.538 194.63 753.018 196.54 756.988 196.54C760.328 196.54 764.778 196.54 768.428 196.38C771.288 196.22 773.668 196.22 775.098 196.22C780.028 196.22 784.638 196.38 789.878 196.54C797.028 196.7 804.978 197.02 816.738 197.02L816.768 197.01ZM698.688 197.01C704.248 197.01 706.638 197.01 708.068 192.08C709.018 189.06 709.978 179.21 709.978 175.71C709.978 174.44 709.978 171.42 707.118 171.42C704.578 171.42 704.098 173.8 703.938 175.08C702.988 180.48 701.558 182.87 698.378 184.3C695.038 185.73 689.158 185.89 685.668 185.89C671.048 185.89 670.408 183.67 670.098 175.56C669.938 172.7 670.098 165.23 670.098 159.35L670.258 142.5C675.028 142.5 687.108 142.82 689.488 142.98C694.418 143.46 695.528 145.36 696.008 147.11C696.328 148.38 696.488 149.65 696.488 150.77V151.88C696.488 153.79 697.758 154.9 699.508 154.9C702.528 154.9 702.528 151.56 702.528 150.45C702.528 149.5 703.008 143.93 703.168 141.07C703.488 135.98 703.808 133.44 704.118 132.01C704.278 131.37 704.278 130.9 704.278 130.58C704.278 128.83 703.168 127.72 701.578 127.72C700.148 127.72 699.198 128.67 697.918 130.1C697.128 131.05 695.218 131.53 692.198 131.69C690.288 131.85 682.188 132.01 670.108 132.01V96.2498C674.398 96.4098 687.428 96.5698 689.658 96.8898C696.488 97.6798 697.128 99.2698 697.918 101.02C698.398 102.29 698.558 104.52 698.558 105.47C698.558 108.81 700.628 109.13 701.578 109.13C702.368 109.13 704.438 108.81 704.758 106.11C704.918 105 705.238 102.3 705.238 99.7498C705.238 98.3198 705.398 97.2098 705.398 96.5698C705.718 92.1198 706.038 90.0498 706.348 88.7798C706.508 88.1398 706.508 87.5098 706.508 87.1898C706.508 84.3298 704.438 84.1698 703.968 84.1698C703.018 84.1698 701.898 84.6498 701.268 84.8098C700.158 85.1298 697.608 85.4498 695.548 85.5998C693.798 85.7598 680.768 85.7598 659.788 85.7598C658.038 85.7598 656.128 85.7598 652.478 85.5998C648.348 85.4398 643.418 85.2798 639.128 85.2798C637.698 85.2798 634.198 85.2798 634.198 88.2998C634.198 89.7298 634.988 91.3198 638.328 91.3198C640.398 91.3198 642.618 91.6398 643.568 91.7998C647.228 92.4398 648.018 93.7098 648.338 98.3198C648.658 102.77 648.658 106.74 648.658 128.36V153.47C648.658 166.5 648.658 177.78 648.018 183.66C647.538 188.11 646.588 189.54 645.158 190.02C643.568 190.5 641.978 190.66 640.388 190.66C636.888 190.66 636.418 192.41 636.418 193.52C636.418 194.63 636.898 196.54 640.868 196.54C644.208 196.54 648.498 196.54 652.308 196.38C655.168 196.22 657.548 196.22 658.978 196.22C662.158 196.22 665.648 196.22 669.788 196.38C676.778 196.7 685.358 197.02 698.708 197.02L698.688 197.01ZM456.338 196.53C458.878 196.53 462.218 196.53 465.078 196.37C467.298 196.21 469.208 196.21 470.478 196.21C471.428 196.21 473.018 196.21 474.928 196.37C477.948 196.69 481.758 196.53 485.418 196.53C486.848 196.53 490.508 196.53 490.508 193.35C490.508 192.87 490.348 190.65 486.698 190.65C484.948 190.65 483.038 190.33 481.138 189.86C478.438 189.22 478.118 188.11 478.118 187C478.118 184.78 478.278 182.87 478.598 180.48L485.268 128.67C486.858 131.85 488.448 135.19 490.038 138.52C493.848 146.62 497.188 154.09 497.988 155.84C499.258 158.86 508.478 176.82 514.988 189.21C517.528 193.98 518.798 196.36 521.028 196.36C523.408 196.36 524.368 194.77 527.858 187.46L556.938 126.91L564.728 184.92C565.208 187.94 565.048 189.05 564.888 189.37C564.098 189.69 562.508 190.64 562.508 192.39C562.508 195.25 565.848 195.57 568.228 195.73C573.948 196.05 593.658 196.52 597.308 196.52C602.238 196.52 602.708 194.3 602.708 193.34C602.708 191.43 601.278 190.64 598.738 190.64C596.828 190.64 594.288 190.48 590.318 189.21C587.298 188.26 585.868 185.24 584.598 176.18L571.568 88.1398C571.408 86.5498 570.778 82.2598 567.278 82.2598C564.578 82.2598 563.308 85.1198 562.668 86.5498L525.478 164.74L487.978 87.5098C486.228 84.0098 484.958 82.2698 482.738 82.2698C481.468 82.2698 479.238 82.9098 478.608 87.3598L464.468 180.33C463.828 184.94 462.718 189.55 460.018 190.18C457.948 190.66 457.158 190.66 456.048 190.66C452.548 190.66 452.078 192.25 452.078 193.36C452.078 194.31 452.398 196.54 456.368 196.54L456.338 196.53Z" fill="#0E0000"/>
</g>
<defs>
<clipPath id="clip0_5060_8395">
<rect width="1186.73" height="303.42" fill="white"/>
</clipPath>
</defs>
</svg>
