<?xml version="1.0" encoding="UTF-8" standalone="no"?>
<svg
   xmlns:dc="http://purl.org/dc/elements/1.1/"
   xmlns:cc="http://creativecommons.org/ns#"
   xmlns:rdf="http://www.w3.org/1999/02/22-rdf-syntax-ns#"
   xmlns:svg="http://www.w3.org/2000/svg"
   xmlns="http://www.w3.org/2000/svg"
   id="svg37"
   height="7.3699999mm"
   width="20.58mm"
   version="1.0">
  <metadata
     id="metadata41">
    <rdf:RDF>
      <cc:Work
         rdf:about="">
        <dc:format>image/svg+xml</dc:format>
        <dc:type
           rdf:resource="http://purl.org/dc/dcmitype/StillImage" />
      </cc:Work>
    </rdf:RDF>
  </metadata>
  <defs
     id="defs9">
    <clipPath
       id="clipEmfPath1"
       clipPathUnits="userSpaceOnUse">
      <path
         id="path2"
         d="  M 0,0   L 0,0   L 0,29.599088   L 78.550799,29.599088   L 78.550799,0 " />
    </clipPath>
    <clipPath
       id="clipEmfPath2"
       clipPathUnits="userSpaceOnUse">
      <path
         id="path5"
         d="  M 0.30019414,0   L 0.30019414,0   L 0.30019414,28.896736   L 78.550799,28.896736   L 78.550799,0 " />
    </clipPath>
    <pattern
       y="0"
       x="0"
       height="6"
       width="6"
       patternUnits="userSpaceOnUse"
       id="EMFhbasepattern" />
  </defs>
  <path
     id="path11"
     d="  M 4.7030415,8.227543   L 4.7030415,8.227543   C 4.7030415,9.130566 4.8031062,10.033589 4.9031709,10.73594   C 5.0032356,11.438291 5.203365,12.040307 5.5035592,12.541986   C 5.8037533,13.043666 6.2040121,13.344673 6.7043357,13.545345   C 7.1045946,13.846353 7.7049828,13.946689 8.4054358,13.946689   C 9.1058888,13.946689 9.7062771,13.846353 10.206601,13.545345   C 10.606859,13.344673 11.007118,13.043666 11.307312,12.541986   C 11.607507,12.040307 11.807636,11.438291 12.007765,10.73594   C 12.10783,10.033589 12.10783,9.130566 12.10783,8.227543   C 12.10783,7.4248559 12.10783,6.7225046 12.007765,6.0201534   C 11.907701,5.3178022 11.707571,4.7157868 11.507442,4.2141074   C 11.207248,3.7124279 10.806989,3.2107485 10.306665,2.9097408   C 9.8063418,2.6087331 9.2059535,2.4080614 8.4054358,2.4080614   C 7.6049181,2.4080614 7.0045298,2.6087331 6.5042063,2.9097408   C 6.0038827,3.2107485 5.7036886,3.7124279 5.4034944,4.2141074   C 5.1033003,4.7157868 4.9031709,5.3178022 4.8031062,6.0201534   C 4.7030415,6.7225046 4.7030415,7.4248559 4.7030415,8.227543   L 4.7030415,8.227543   z  M 2.9018766,8.227543   L 2.9018766,8.227543   C 2.9018766,7.32452 3.0019414,6.5218329 3.4022002,5.8194816   C 3.7023943,5.1171304 4.1026532,4.4147792 4.7030415,3.9130997   C 5.203365,3.4114203 5.8037533,3.0100767 6.4041416,2.709069   C 7.1045946,2.4080614 7.8050475,2.2073896 8.4054358,2.2073896   C 9.1058888,2.2073896 9.8063418,2.4080614 10.506795,2.709069   C 11.107183,3.0100767 11.707571,3.4114203 12.30796,3.9130997   C 12.808283,4.4147792 13.208542,5.1171304 13.508736,5.8194816   C 13.80893,6.5218329 14.00906,7.32452 14.00906,8.227543   C 14.00906,8.9298942 13.80893,9.6322454 13.608801,10.434933   C 13.308607,11.137284 12.908348,11.739299 12.408024,12.341314   C 11.907701,12.842994 11.307312,13.344673 10.606859,13.645681   C 9.9064065,13.946689 9.2059535,14.14736 8.4054358,14.14736   C 7.6049181,14.14736 6.9044651,14.047025 6.2040121,13.645681   C 5.5035592,13.344673 4.9031709,12.94333 4.4028473,12.341314   C 3.9025238,11.839635 3.5022649,11.137284 3.3021355,10.434933   C 3.0019414,9.7325813 2.9018766,8.9298942 2.9018766,8.227543   L 2.9018766,8.227543   z "
     clip-path="url(#clipEmfPath2)"
     style="fill:#000000;fill-rule:evenodd;fill-opacity:1;stroke:none;" />
  <path
     id="path13"
     d="  M 21.613978,8.227543   L 21.613978,8.227543   C 21.814107,8.227543 22.014237,8.227543 22.314431,8.227543   C 22.51456,8.3278789 22.71469,8.3278789 22.914819,8.3278789   C 23.715337,8.3278789 24.315725,8.0268712 24.715984,7.6255276   C 25.216307,7.1238482 25.416437,6.421497 25.416437,5.518474   C 25.416437,4.9164586 25.416437,4.5151151 25.216307,4.1137715   C 25.116243,3.8127638 25.016178,3.5117562 24.715984,3.2107485   C 24.515854,3.0100767 24.21566,2.9097408 23.815401,2.8094049   C 23.515207,2.709069 23.014884,2.709069 22.51456,2.709069   C 22.314431,2.709069 22.114301,2.709069 22.014237,2.709069   C 21.814107,2.709069 21.714043,2.709069 21.613978,2.709069   L 21.613978,8.227543   z  M 18.211778,13.746017   L 18.211778,13.746017   L 20.012942,13.746017   L 20.012942,2.709069   L 18.211778,2.709069   L 18.211778,2.5083973   L 21.213719,2.5083973   C 21.413848,2.5083973 21.513913,2.5083973 21.714043,2.5083973   C 21.814107,2.5083973 22.014237,2.5083973 22.114301,2.5083973   C 22.314431,2.5083973 22.414495,2.5083973 22.614625,2.4080614   C 22.71469,2.4080614 22.914819,2.4080614 23.014884,2.4080614   C 23.615272,2.4080614 24.21566,2.5083973 24.715984,2.709069   C 25.216307,2.8094049 25.716631,3.0100767 26.016825,3.3110844   C 26.417084,3.5117562 26.717278,3.9130997 26.917408,4.2141074   C 27.117537,4.6154509 27.217602,5.0167945 27.217602,5.518474   C 27.217602,6.0201534 27.117537,6.421497 26.917408,6.8228405   C 26.617213,7.1238482 26.317019,7.4248559 25.91676,7.7258635   C 25.516502,8.0268712 25.016178,8.227543 24.515854,8.3278789   C 23.915466,8.4282148 23.415143,8.5285507 22.814754,8.5285507   C 22.71469,8.5285507 22.51456,8.5285507 22.214366,8.5285507   C 22.014237,8.4282148 21.814107,8.4282148 21.613978,8.4282148   L 21.613978,13.746017   L 23.415143,13.746017   L 23.415143,13.946689   L 18.211778,13.946689   L 18.211778,13.746017   z "
     clip-path="url(#clipEmfPath2)"
     style="fill:#000000;fill-rule:evenodd;fill-opacity:1;stroke:none;" />
  <path
     id="path15"
     d="  M 31.320255,13.746017   L 31.320255,13.746017   L 33.12142,13.746017   L 33.12142,2.709069   L 31.320255,2.709069   L 31.320255,2.5083973   L 36.52362,2.5083973   L 36.52362,2.709069   L 34.722455,2.709069   L 34.722455,13.746017   L 36.52362,13.746017   L 36.52362,13.946689   L 31.320255,13.946689   L 31.320255,13.746017   z "
     clip-path="url(#clipEmfPath2)"
     style="fill:#000000;fill-rule:evenodd;fill-opacity:1;stroke:none;" />
  <path
     id="path17"
     d="  M 40.025885,13.746017   L 40.025885,13.746017   L 41.82705,13.746017   L 41.82705,2.709069   L 40.025885,2.709069   L 40.025885,2.5083973   L 43.428085,2.5083973   L 48.831579,11.23762   L 48.931644,11.23762   L 48.931644,2.709069   L 47.130479,2.709069   L 47.130479,2.5083973   L 50.932938,2.5083973   L 50.932938,2.709069   L 49.131774,2.709069   L 49.131774,14.14736   L 48.831579,14.14736   L 42.027179,3.4114203   L 42.027179,3.4114203   L 42.027179,13.746017   L 43.828344,13.746017   L 43.828344,13.946689   L 40.025885,13.946689   L 40.025885,13.746017   z "
     clip-path="url(#clipEmfPath2)"
     style="fill:#000000;fill-rule:evenodd;fill-opacity:1;stroke:none;" />
  <path
     id="path19"
     d="  M 54.435203,13.746017   L 54.435203,13.746017   L 56.236368,13.746017   L 56.236368,2.709069   L 54.435203,2.709069   L 54.435203,2.5083973   L 59.638568,2.5083973   L 59.638568,2.709069   L 57.837404,2.709069   L 57.837404,13.746017   L 59.638568,13.746017   L 59.638568,13.946689   L 54.435203,13.946689   L 54.435203,13.746017   z "
     clip-path="url(#clipEmfPath2)"
     style="fill:#000000;fill-rule:evenodd;fill-opacity:1;stroke:none;" />
  <path
     id="path21"
     d="  M 65.742516,8.227543   L 65.742516,8.227543   C 65.742516,9.130566 65.742516,10.033589 65.942645,10.73594   C 66.04271,11.438291 66.242839,12.040307 66.543033,12.541986   C 66.843228,13.043666 67.243486,13.344673 67.74381,13.545345   C 68.144069,13.846353 68.744457,13.946689 69.44491,13.946689   C 70.145363,13.946689 70.745751,13.846353 71.14601,13.545345   C 71.646334,13.344673 72.046593,13.043666 72.346787,12.541986   C 72.646981,12.040307 72.84711,11.438291 72.947175,10.73594   C 73.147304,10.033589 73.147304,9.130566 73.147304,8.227543   C 73.147304,7.4248559 73.147304,6.7225046 73.04724,6.0201534   C 72.947175,5.3178022 72.747046,4.7157868 72.446851,4.2141074   C 72.246722,3.7124279 71.846463,3.2107485 71.34614,2.9097408   C 70.845816,2.6087331 70.245428,2.4080614 69.44491,2.4080614   C 68.644392,2.4080614 68.044004,2.6087331 67.543681,2.9097408   C 67.043357,3.2107485 66.643098,3.7124279 66.442969,4.2141074   C 66.142775,4.7157868 65.942645,5.3178022 65.84258,6.0201534   C 65.742516,6.7225046 65.742516,7.4248559 65.742516,8.227543   L 65.742516,8.227543   z  M 63.841286,8.227543   L 63.841286,8.227543   C 63.841286,7.32452 64.041416,6.5218329 64.34161,5.8194816   C 64.741869,5.1171304 65.142128,4.4147792 65.642451,3.9130997   C 66.242839,3.4114203 66.843228,3.0100767 67.443616,2.709069   C 68.144069,2.4080614 68.744457,2.2073896 69.44491,2.2073896   C 70.145363,2.2073896 70.845816,2.4080614 71.546269,2.709069   C 72.146657,3.0100767 72.747046,3.4114203 73.247369,3.9130997   C 73.847757,4.4147792 74.248016,5.1171304 74.54821,5.8194816   C 74.848405,6.5218329 75.048534,7.32452 75.048534,8.227543   C 75.048534,8.9298942 74.848405,9.6322454 74.54821,10.434933   C 74.348081,11.137284 73.947822,11.739299 73.447499,12.341314   C 72.947175,12.842994 72.346787,13.344673 71.646334,13.645681   C 70.945881,13.946689 70.245428,14.14736 69.44491,14.14736   C 68.644392,14.14736 67.943939,14.047025 67.243486,13.645681   C 66.543033,13.344673 65.942645,12.94333 65.442322,12.341314   C 64.941998,11.839635 64.541739,11.137284 64.34161,10.434933   C 64.041416,9.7325813 63.841286,8.9298942 63.841286,8.227543   L 63.841286,8.227543   z "
     clip-path="url(#clipEmfPath2)"
     style="fill:#000000;fill-rule:evenodd;fill-opacity:1;stroke:none;" />
  <path
     id="path23"
     d="  M 2.9018766,24.481957   L 2.9018766,24.481957   L 3.8024591,24.481957   L 3.8024591,19.063819   L 2.9018766,19.063819   L 2.9018766,18.963483   L 7.5048534,18.963483   L 7.5048534,20.26785   L 7.4047887,20.26785   C 7.4047887,20.067178 7.304724,19.866506 7.2046593,19.76617   C 7.1045946,19.565499 7.0045298,19.465163 6.9044651,19.364827   C 6.8044004,19.264491 6.7043357,19.164155 6.5042063,19.063819   C 6.4041416,19.063819 6.2040121,19.063819 6.0038827,19.063819   L 4.6029768,19.063819   L 4.6029768,21.672552   L 5.1033003,21.672552   C 5.3034297,21.672552 5.5035592,21.572216 5.6036239,21.572216   C 5.7036886,21.572216 5.8037533,21.47188 5.903818,21.371545   C 6.0038827,21.271209 6.1039474,21.170873 6.1039474,21.070537   C 6.2040121,20.869865 6.3040769,20.669193 6.3040769,20.468522   L 6.4041416,20.468522   L 6.4041416,22.976919   L 6.3040769,22.976919   C 6.3040769,22.776247 6.2040121,22.675911 6.2040121,22.475239   C 6.2040121,22.374903 6.1039474,22.174232 6.0038827,22.073896   C 6.0038827,21.97356 5.903818,21.873224 5.7036886,21.873224   C 5.6036239,21.772888 5.5035592,21.772888 5.3034297,21.772888   L 4.6029768,21.772888   L 4.6029768,24.481957   L 5.5035592,24.481957   L 5.5035592,24.582293   L 2.9018766,24.582293   L 2.9018766,24.481957   z "
     clip-path="url(#clipEmfPath2)"
     style="fill:#000000;fill-rule:evenodd;fill-opacity:1;stroke:none;" />
  <path
     id="path25"
     d="  M 14.00906,24.481957   L 14.00906,24.481957   L 14.909642,24.481957   L 14.909642,19.063819   L 14.00906,19.063819   L 14.00906,18.963483   L 16.610742,18.963483   L 16.610742,19.063819   L 15.71016,19.063819   L 15.71016,24.481957   L 16.610742,24.481957   L 16.610742,24.582293   L 14.00906,24.582293   L 14.00906,24.481957   z "
     clip-path="url(#clipEmfPath2)"
     style="fill:#000000;fill-rule:evenodd;fill-opacity:1;stroke:none;" />
  <path
     id="path27"
     d="  M 22.814754,24.481957   L 22.814754,24.481957   L 23.715337,24.481957   L 23.715337,19.063819   L 22.814754,19.063819   L 22.814754,18.963483   L 24.515854,18.963483   L 27.217602,23.277926   L 27.217602,23.277926   L 27.217602,19.063819   L 26.317019,19.063819   L 26.317019,18.963483   L 28.218249,18.963483   L 28.218249,19.063819   L 27.317666,19.063819   L 27.317666,24.782965   L 27.217602,24.782965   L 23.815401,19.364827   L 23.815401,19.364827   L 23.815401,24.481957   L 24.715984,24.481957   L 24.715984,24.582293   L 22.814754,24.582293   L 22.814754,24.481957   z "
     clip-path="url(#clipEmfPath2)"
     style="fill:#000000;fill-rule:evenodd;fill-opacity:1;stroke:none;" />
  <path
     id="path29"
     d="  M 36.32349,19.866506   L 36.32349,19.866506   L 35.422908,22.174232   L 37.124008,22.174232   L 36.32349,19.866506   z  M 33.721808,24.481957   L 33.721808,24.481957   L 34.422261,24.481957   L 36.52362,18.762811   L 36.723749,18.762811   L 38.925173,24.481957   L 39.625626,24.481957   L 39.625626,24.582293   L 37.124008,24.582293   L 37.124008,24.481957   L 38.024591,24.481957   L 37.224073,22.274568   L 35.322843,22.274568   L 34.522326,24.481957   L 35.422908,24.481957   L 35.422908,24.582293   L 33.721808,24.582293   L 33.721808,24.481957   z "
     clip-path="url(#clipEmfPath2)"
     style="fill:#000000;fill-rule:evenodd;fill-opacity:1;stroke:none;" />
  <path
     id="path31"
     d="  M 45.529444,24.481957   L 45.529444,24.481957   L 46.430026,24.481957   L 46.430026,19.063819   L 45.529444,19.063819   L 45.529444,18.963483   L 47.230544,18.963483   L 49.932291,23.277926   L 49.932291,23.277926   L 49.932291,19.063819   L 49.131774,19.063819   L 49.131774,18.963483   L 50.932938,18.963483   L 50.932938,19.063819   L 50.132421,19.063819   L 50.132421,24.782965   L 49.932291,24.782965   L 46.530091,19.364827   L 46.530091,19.364827   L 46.530091,24.481957   L 47.430673,24.481957   L 47.430673,24.582293   L 45.529444,24.582293   L 45.529444,24.481957   z "
     clip-path="url(#clipEmfPath2)"
     style="fill:#000000;fill-rule:evenodd;fill-opacity:1;stroke:none;" />
  <path
     id="path33"
     d="  M 62.240251,24.582293   L 62.240251,24.582293   L 62.140186,24.582293   C 62.140186,24.582293 62.040121,24.582293 62.040121,24.481957   C 61.940057,24.481957 61.839992,24.481957 61.739927,24.481957   C 61.739927,24.481957 61.639863,24.481957 61.539798,24.481957   C 61.439733,24.582293 61.339668,24.582293 61.239604,24.582293   C 61.039474,24.682629 60.93941,24.682629 60.839345,24.682629   C 60.639215,24.782965 60.439086,24.782965 60.339021,24.782965   C 59.938762,24.782965 59.638568,24.682629 59.338374,24.582293   C 59.03818,24.481957 58.737986,24.281285 58.437792,23.980278   C 58.137598,23.67927 57.937468,23.378262 57.737339,23.077255   C 57.637274,22.675911 57.537209,22.274568 57.537209,21.772888   C 57.537209,21.371545 57.537209,20.970201 57.737339,20.669193   C 57.837404,20.26785 58.037533,19.966842 58.337727,19.665834   C 58.537857,19.364827 58.838051,19.164155 59.238309,19.063819   C 59.538504,18.863147 59.938762,18.762811 60.339021,18.762811   C 60.539151,18.762811 60.639215,18.762811 60.839345,18.863147   C 60.93941,18.863147 61.039474,18.863147 61.139539,18.963483   C 61.239604,18.963483 61.339668,18.963483 61.439733,19.063819   C 61.539798,19.063819 61.639863,19.063819 61.639863,19.063819   C 61.739927,19.063819 61.839992,19.063819 61.940057,19.063819   C 61.940057,18.963483 61.940057,18.963483 62.040121,18.963483   L 62.140186,18.963483   L 62.140186,20.568857   L 62.040121,20.568857   C 62.040121,20.26785 61.940057,20.067178 61.839992,19.966842   C 61.839992,19.76617 61.739927,19.565499 61.539798,19.364827   C 61.439733,19.264491 61.239604,19.164155 61.039474,19.063819   C 60.839345,18.963483 60.639215,18.863147 60.238957,18.863147   C 60.038827,18.863147 59.738633,18.963483 59.538504,19.063819   C 59.338374,19.063819 59.138245,19.264491 59.03818,19.364827   C 58.938115,19.465163 58.838051,19.665834 58.737986,19.866506   C 58.637921,20.067178 58.537857,20.26785 58.537857,20.468522   C 58.437792,20.669193 58.437792,20.970201 58.437792,21.170873   C 58.437792,21.371545 58.437792,21.572216 58.437792,21.772888   C 58.437792,22.374903 58.437792,22.776247 58.537857,23.177591   C 58.637921,23.578934 58.737986,23.879942 58.938115,24.080614   C 59.138245,24.281285 59.338374,24.381621 59.538504,24.481957   C 59.738633,24.582293 60.038827,24.682629 60.238957,24.682629   C 60.639215,24.682629 60.93941,24.582293 61.139539,24.481957   C 61.339668,24.381621 61.539798,24.281285 61.639863,24.080614   C 61.839992,23.879942 61.940057,23.779606 61.940057,23.578934   C 62.040121,23.277926 62.140186,23.077255 62.140186,22.876583   L 62.240251,22.876583   L 62.240251,24.582293   z "
     clip-path="url(#clipEmfPath2)"
     style="fill:#000000;fill-rule:evenodd;fill-opacity:1;stroke:none;" />
  <path
     id="path35"
     d="  M 68.644392,24.481957   L 68.644392,24.481957   L 69.544975,24.481957   L 69.544975,19.063819   L 68.644392,19.063819   L 68.644392,18.963483   L 73.247369,18.963483   L 73.247369,20.26785   L 73.147304,20.26785   C 73.04724,20.067178 72.947175,19.866506 72.947175,19.76617   C 72.84711,19.565499 72.747046,19.465163 72.646981,19.364827   C 72.546916,19.264491 72.346787,19.164155 72.246722,19.063819   C 72.046593,19.063819 71.846463,19.063819 71.646334,19.063819   L 70.345493,19.063819   L 70.345493,21.47188   L 70.845816,21.47188   C 71.045946,21.47188 71.14601,21.47188 71.34614,21.47188   C 71.446204,21.47188 71.546269,21.371545 71.646334,21.271209   C 71.746398,21.170873 71.746398,21.070537 71.846463,20.869865   C 71.946528,20.769529 71.946528,20.568857 72.046593,20.368186   L 72.146657,20.368186   L 72.146657,22.776247   L 72.046593,22.776247   C 71.946528,22.675911 71.946528,22.475239 71.946528,22.374903   C 71.846463,22.274568 71.846463,22.073896 71.746398,21.97356   C 71.646334,21.873224 71.546269,21.772888 71.446204,21.672552   C 71.34614,21.672552 71.14601,21.572216 70.945881,21.572216   L 70.345493,21.572216   L 70.345493,24.481957   L 71.846463,24.481957   C 72.146657,24.481957 72.346787,24.481957 72.546916,24.281285   C 72.747046,24.18095 72.947175,24.080614 73.04724,23.879942   C 73.147304,23.67927 73.247369,23.478598 73.347434,23.378262   C 73.347434,23.177591 73.447499,22.976919 73.447499,22.876583   L 73.547563,22.876583   L 73.547563,24.582293   L 68.644392,24.582293   L 68.644392,24.481957   z "
     clip-path="url(#clipEmfPath2)"
     style="fill:#000000;fill-rule:evenodd;fill-opacity:1;stroke:none;" />
</svg>
