<?xml version="1.0" encoding="UTF-8" standalone="no"?>
<svg
   xmlns:dc="http://purl.org/dc/elements/1.1/"
   xmlns:cc="http://creativecommons.org/ns#"
   xmlns:rdf="http://www.w3.org/1999/02/22-rdf-syntax-ns#"
   xmlns:svg="http://www.w3.org/2000/svg"
   xmlns="http://www.w3.org/2000/svg"
   id="svg37"
   height="3.3099999mm"
   width="42.419998mm"
   version="1.0">
  <metadata
     id="metadata41">
    <rdf:RDF>
      <cc:Work
         rdf:about="">
        <dc:format>image/svg+xml</dc:format>
        <dc:type
           rdf:resource="http://purl.org/dc/dcmitype/StillImage" />
      </cc:Work>
    </rdf:RDF>
  </metadata>
  <defs
     id="defs9">
    <clipPath
       id="clipEmfPath1"
       clipPathUnits="userSpaceOnUse">
      <path
         id="path2"
         d="  M 0,0   L 0,0   L 0,13.283501   L 162.06014,13.283501   L 162.06014,0 " />
    </clipPath>
    <clipPath
       id="clipEmfPath2"
       clipPathUnits="userSpaceOnUse">
      <path
         id="path5"
         d="  M 0.30011137,0   L 0.30011137,0   L 0.30011137,13.283501   L 161.76003,13.283501   L 161.76003,0 " />
    </clipPath>
    <pattern
       y="0"
       x="0"
       height="6"
       width="6"
       patternUnits="userSpaceOnUse"
       id="EMFhbasepattern" />
  </defs>
  <path
     id="path11"
     d="  M 3.7013736,5.7360572   L 3.7013736,5.7360572   C 3.7013736,6.3398527 3.8014107,6.9436482 3.9014478,7.4468111   C 3.9014478,7.8493414 4.101522,8.2518717 4.3015963,8.6544021   C 4.5016705,8.9562998 4.7017448,9.157565 5.0018562,9.3588301   C 5.3019675,9.4594627 5.702116,9.5600953 6.2023016,9.5600953   C 6.6024501,9.5600953 7.0025986,9.4594627 7.30271,9.3588301   C 7.7028585,9.157565 7.9029327,8.9562998 8.103007,8.6544021   C 8.3030812,8.2518717 8.5031555,7.8493414 8.5031555,7.4468111   C 8.6031926,6.9436482 8.7032297,6.3398527 8.7032297,5.7360572   C 8.7032297,5.2328943 8.6031926,4.7297314 8.6031926,4.327201   C 8.5031555,3.8240381 8.4031183,3.4215078 8.2030441,3.11961   C 8.0029699,2.7170797 7.8028956,2.415182 7.5027842,2.2139168   C 7.1026357,2.0126516 6.7024873,1.9120191 6.2023016,1.9120191   C 5.702116,1.9120191 5.3019675,2.0126516 4.901819,2.2139168   C 4.6017077,2.415182 4.4016334,2.7170797 4.2015592,3.11961   C 4.0014849,3.4215078 3.9014478,3.8240381 3.8014107,4.327201   C 3.8014107,4.7297314 3.7013736,5.2328943 3.7013736,5.7360572   L 3.7013736,5.7360572   z  M 2.5009281,5.7360572   L 2.5009281,5.7360572   C 2.5009281,5.1322617 2.6009652,4.6290988 2.8010394,4.1259359   C 3.1011508,3.7234055 3.3012251,3.2202426 3.7013736,2.9183449   C 4.0014849,2.5158146 4.4016334,2.3145494 4.901819,2.1132842   C 5.3019675,1.9120191 5.8021531,1.8113865 6.2023016,1.8113865   C 6.7024873,1.8113865 7.1026357,1.9120191 7.6028214,2.1132842   C 8.0029699,2.3145494 8.4031183,2.5158146 8.7032297,2.9183449   C 9.1033782,3.2202426 9.4034896,3.7234055 9.6035638,4.1259359   C 9.8036381,4.6290988 9.9036752,5.1322617 9.9036752,5.7360572   C 9.9036752,6.2392201 9.8036381,6.742383 9.6035638,7.2455459   C 9.4034896,7.6480762 9.1033782,8.1512392 8.8032668,8.4531369   C 8.5031555,8.8556672 8.103007,9.157565 7.6028214,9.3588301   C 7.2026729,9.5600953 6.7024873,9.6607279 6.2023016,9.6607279   C 5.702116,9.6607279 5.2019304,9.5600953 4.7017448,9.3588301   C 4.3015963,9.157565 3.9014478,8.8556672 3.5012993,8.4531369   C 3.2011879,8.1512392 3.0011137,7.7487088 2.8010394,7.2455459   C 2.6009652,6.742383 2.5009281,6.2392201 2.5009281,5.7360572   L 2.5009281,5.7360572   z "
     clip-path="url(#clipEmfPath2)"
     style="fill:#000000;fill-rule:evenodd;fill-opacity:1;stroke:none;" />
  <path
     id="path13"
     d="  M 19.907388,5.7360572   L 19.907388,5.7360572   C 20.007425,5.7360572 20.207499,5.7360572 20.307536,5.8366898   C 20.50761,5.8366898 20.607647,5.8366898 20.707684,5.8366898   C 21.307907,5.8366898 21.708056,5.6354246 22.008167,5.3335269   C 22.308278,5.0316291 22.408316,4.5284662 22.408316,3.9246707   C 22.408316,3.622773 22.408316,3.3208752 22.308278,3.0189775   C 22.208241,2.8177123 22.108204,2.6164471 22.008167,2.415182   C 21.808093,2.3145494 21.608019,2.2139168 21.407944,2.1132842   C 21.107833,2.1132842 20.807722,2.1132842 20.50761,2.1132842   C 20.407573,2.1132842 20.207499,2.1132842 20.107462,2.1132842   C 20.007425,2.1132842 19.907388,2.1132842 19.907388,2.1132842   L 19.907388,5.7360572   z  M 17.606534,9.3588301   L 17.606534,9.3588301   L 18.806979,9.3588301   L 18.806979,2.1132842   L 17.606534,2.1132842   L 17.606534,1.9120191   L 19.607276,1.9120191   C 19.707313,1.9120191 19.80735,1.9120191 19.907388,1.9120191   C 20.007425,1.9120191 20.107462,1.9120191 20.207499,1.9120191   C 20.307536,1.9120191 20.407573,1.9120191 20.50761,1.9120191   C 20.607647,1.9120191 20.707684,1.9120191 20.807722,1.9120191   C 21.20787,1.9120191 21.608019,2.0126516 21.90813,2.1132842   C 22.308278,2.1132842 22.60839,2.3145494 22.808464,2.5158146   C 23.108575,2.6164471 23.30865,2.9183449 23.408687,3.11961   C 23.608761,3.3208752 23.608761,3.622773 23.608761,3.9246707   C 23.608761,4.2265685 23.508724,4.5284662 23.408687,4.8303639   C 23.208613,5.0316291 23.008538,5.2328943 22.708427,5.4341594   C 22.508353,5.6354246 22.208241,5.7360572 21.808093,5.8366898   C 21.407944,5.9373224 21.107833,5.9373224 20.707684,5.9373224   C 20.607647,5.9373224 20.50761,5.9373224 20.307536,5.9373224   C 20.107462,5.9373224 20.007425,5.9373224 19.907388,5.8366898   L 19.907388,9.3588301   L 21.107833,9.3588301   L 21.107833,9.5600953   L 17.606534,9.5600953   L 17.606534,9.3588301   z "
     clip-path="url(#clipEmfPath2)"
     style="fill:#000000;fill-rule:evenodd;fill-opacity:1;stroke:none;" />
  <path
     id="path15"
     d="  M 31.31162,9.3588301   L 31.31162,9.3588301   L 32.412028,9.3588301   L 32.412028,2.1132842   L 31.31162,2.1132842   L 31.31162,1.9120191   L 34.712882,1.9120191   L 34.712882,2.1132842   L 33.512436,2.1132842   L 33.512436,9.3588301   L 34.712882,9.3588301   L 34.712882,9.5600953   L 31.31162,9.5600953   L 31.31162,9.3588301   z "
     clip-path="url(#clipEmfPath2)"
     style="fill:#000000;fill-rule:evenodd;fill-opacity:1;stroke:none;" />
  <path
     id="path17"
     d="  M 41.915555,9.3588301   L 41.915555,9.3588301   L 43.116,9.3588301   L 43.116,2.1132842   L 41.915555,2.1132842   L 41.915555,1.9120191   L 44.216408,1.9120191   L 47.817745,7.7487088   L 47.817745,7.7487088   L 47.817745,2.1132842   L 46.617299,2.1132842   L 46.617299,1.9120191   L 49.118227,1.9120191   L 49.118227,2.1132842   L 48.017819,2.1132842   L 48.017819,9.6607279   L 47.817745,9.6607279   L 43.316074,2.5158146   L 43.316074,2.5158146   L 43.316074,9.3588301   L 44.416483,9.3588301   L 44.416483,9.5600953   L 41.915555,9.5600953   L 41.915555,9.3588301   z "
     clip-path="url(#clipEmfPath2)"
     style="fill:#000000;fill-rule:evenodd;fill-opacity:1;stroke:none;" />
  <path
     id="path19"
     d="  M 56.420937,9.3588301   L 56.420937,9.3588301   L 57.621383,9.3588301   L 57.621383,2.1132842   L 56.420937,2.1132842   L 56.420937,1.9120191   L 59.8222,1.9120191   L 59.8222,2.1132842   L 58.721791,2.1132842   L 58.721791,9.3588301   L 59.8222,9.3588301   L 59.8222,9.5600953   L 56.420937,9.5600953   L 56.420937,9.3588301   z "
     clip-path="url(#clipEmfPath2)"
     style="fill:#000000;fill-rule:evenodd;fill-opacity:1;stroke:none;" />
  <path
     id="path21"
     d="  M 68.825541,5.7360572   L 68.825541,5.7360572   C 68.825541,6.3398527 68.925578,6.9436482 68.925578,7.4468111   C 69.025615,7.8493414 69.225689,8.2518717 69.425763,8.6544021   C 69.625838,8.9562998 69.825912,9.157565 70.126023,9.3588301   C 70.426135,9.4594627 70.826283,9.5600953 71.326469,9.5600953   C 71.726617,9.5600953 72.126766,9.4594627 72.426877,9.3588301   C 72.827026,9.157565 73.0271,8.9562998 73.227174,8.6544021   C 73.427248,8.2518717 73.627323,7.8493414 73.627323,7.4468111   C 73.72736,6.9436482 73.827397,6.3398527 73.827397,5.7360572   C 73.827397,5.2328943 73.72736,4.7297314 73.72736,4.327201   C 73.627323,3.8240381 73.527286,3.4215078 73.327211,3.11961   C 73.127137,2.7170797 72.927063,2.415182 72.526914,2.2139168   C 72.226803,2.0126516 71.826654,1.9120191 71.326469,1.9120191   C 70.826283,1.9120191 70.426135,2.0126516 70.025986,2.2139168   C 69.725875,2.415182 69.525801,2.7170797 69.325726,3.11961   C 69.125652,3.4215078 69.025615,3.8240381 68.925578,4.327201   C 68.925578,4.7297314 68.825541,5.2328943 68.825541,5.7360572   L 68.825541,5.7360572   z  M 67.625095,5.7360572   L 67.625095,5.7360572   C 67.625095,5.1322617 67.725132,4.6290988 67.925207,4.1259359   C 68.225318,3.7234055 68.425392,3.2202426 68.825541,2.9183449   C 69.125652,2.5158146 69.525801,2.3145494 70.025986,2.1132842   C 70.426135,1.9120191 70.92632,1.8113865 71.326469,1.8113865   C 71.826654,1.8113865 72.226803,1.9120191 72.726989,2.1132842   C 73.127137,2.3145494 73.527286,2.5158146 73.827397,2.9183449   C 74.227545,3.2202426 74.527657,3.7234055 74.727731,4.1259359   C 74.927805,4.6290988 75.027842,5.1322617 75.027842,5.7360572   C 75.027842,6.2392201 74.927805,6.742383 74.727731,7.2455459   C 74.527657,7.6480762 74.227545,8.1512392 73.927434,8.4531369   C 73.627323,8.8556672 73.227174,9.157565 72.726989,9.3588301   C 72.32684,9.5600953 71.826654,9.6607279 71.326469,9.6607279   C 70.826283,9.6607279 70.326098,9.5600953 69.825912,9.3588301   C 69.425763,9.157565 69.025615,8.8556672 68.625466,8.4531369   C 68.325355,8.1512392 68.125281,7.7487088 67.925207,7.2455459   C 67.725132,6.742383 67.625095,6.2392201 67.625095,5.7360572   L 67.625095,5.7360572   z "
     clip-path="url(#clipEmfPath2)"
     style="fill:#000000;fill-rule:evenodd;fill-opacity:1;stroke:none;" />
  <path
     id="path23"
     d="  M 86.532112,9.3588301   L 86.532112,9.3588301   L 87.63252,9.3588301   L 87.63252,2.1132842   L 86.532112,2.1132842   L 86.532112,1.9120191   L 92.534339,1.9120191   L 92.534339,3.8240381   L 92.434302,3.8240381   C 92.334265,3.5221404 92.234228,3.3208752 92.13419,3.0189775   C 92.034153,2.8177123 91.934116,2.7170797 91.734042,2.5158146   C 91.634005,2.415182 91.433931,2.3145494 91.233856,2.2139168   C 91.033782,2.1132842 90.733671,2.1132842 90.433559,2.1132842   L 88.732928,2.1132842   L 88.732928,5.534792   L 89.433188,5.534792   C 89.633262,5.534792 89.833337,5.534792 90.033411,5.534792   C 90.133448,5.4341594 90.333522,5.3335269 90.433559,5.2328943   C 90.533596,5.1322617 90.633634,4.9309965 90.733671,4.7297314   C 90.833708,4.5284662 90.833708,4.327201 90.933745,4.0253033   L 91.033782,4.0253033   L 91.033782,7.3461785   L 90.933745,7.3461785   C 90.933745,7.1449133 90.833708,6.9436482 90.833708,6.742383   C 90.733671,6.5411178 90.633634,6.3398527 90.533596,6.2392201   C 90.533596,6.0379549 90.333522,5.9373224 90.233485,5.8366898   C 90.033411,5.7360572 89.833337,5.7360572 89.533225,5.7360572   L 88.732928,5.7360572   L 88.732928,9.3588301   L 89.933374,9.3588301   L 89.933374,9.5600953   L 86.532112,9.5600953   L 86.532112,9.3588301   z "
     clip-path="url(#clipEmfPath2)"
     style="fill:#000000;fill-rule:evenodd;fill-opacity:1;stroke:none;" />
  <path
     id="path25"
     d="  M 97.636232,9.3588301   L 97.636232,9.3588301   L 98.836678,9.3588301   L 98.836678,2.1132842   L 97.636232,2.1132842   L 97.636232,1.9120191   L 101.03749,1.9120191   L 101.03749,2.1132842   L 99.837049,2.1132842   L 99.837049,9.3588301   L 101.03749,9.3588301   L 101.03749,9.5600953   L 97.636232,9.5600953   L 97.636232,9.3588301   z "
     clip-path="url(#clipEmfPath2)"
     style="fill:#000000;fill-rule:evenodd;fill-opacity:1;stroke:none;" />
  <path
     id="path27"
     d="  M 105.6392,9.3588301   L 105.6392,9.3588301   L 106.83965,9.3588301   L 106.83965,2.1132842   L 105.6392,2.1132842   L 105.6392,1.9120191   L 107.94006,1.9120191   L 111.54139,7.7487088   L 111.54139,7.7487088   L 111.54139,2.1132842   L 110.34095,2.1132842   L 110.34095,1.9120191   L 112.84187,1.9120191   L 112.84187,2.1132842   L 111.64143,2.1132842   L 111.64143,9.6607279   L 111.44136,9.6607279   L 107.03972,2.5158146   L 106.93968,2.5158146   L 106.93968,9.3588301   L 108.14013,9.3588301   L 108.14013,9.5600953   L 105.6392,9.5600953   L 105.6392,9.3588301   z "
     clip-path="url(#clipEmfPath2)"
     style="fill:#000000;fill-rule:evenodd;fill-opacity:1;stroke:none;" />
  <path
     id="path29"
     d="  M 119.94451,3.2202426   L 119.94451,3.2202426   L 118.8441,6.2392201   L 121.14496,6.2392201   L 119.94451,3.2202426   z  M 116.54325,9.3588301   L 116.54325,9.3588301   L 117.44358,9.3588301   L 120.34466,1.8113865   L 120.54473,1.8113865   L 123.44581,9.3588301   L 124.44618,9.3588301   L 124.44618,9.5600953   L 121.14496,9.5600953   L 121.14496,9.3588301   L 122.3454,9.3588301   L 121.24499,6.4404853   L 118.74407,6.4404853   L 117.64366,9.3588301   L 118.8441,9.3588301   L 118.8441,9.5600953   L 116.54325,9.5600953   L 116.54325,9.3588301   z "
     clip-path="url(#clipEmfPath2)"
     style="fill:#000000;fill-rule:evenodd;fill-opacity:1;stroke:none;" />
  <path
     id="path31"
     d="  M 128.64774,9.3588301   L 128.64774,9.3588301   L 129.84819,9.3588301   L 129.84819,2.1132842   L 128.64774,2.1132842   L 128.64774,1.9120191   L 130.94859,1.9120191   L 134.54993,7.7487088   L 134.54993,7.7487088   L 134.54993,2.1132842   L 133.34949,2.1132842   L 133.34949,1.9120191   L 135.85041,1.9120191   L 135.85041,2.1132842   L 134.75,2.1132842   L 134.75,9.6607279   L 134.44989,9.6607279   L 130.04826,2.5158146   L 130.04826,2.5158146   L 130.04826,9.3588301   L 131.14867,9.3588301   L 131.14867,9.5600953   L 128.64774,9.5600953   L 128.64774,9.3588301   z "
     clip-path="url(#clipEmfPath2)"
     style="fill:#000000;fill-rule:evenodd;fill-opacity:1;stroke:none;" />
  <path
     id="path33"
     d="  M 147.25465,9.5600953   L 147.25465,9.5600953   L 147.15461,9.5600953   C 147.05457,9.4594627 147.05457,9.4594627 146.95453,9.3588301   C 146.8545,9.3588301 146.75446,9.3588301 146.65442,9.3588301   C 146.55439,9.3588301 146.45435,9.3588301 146.25427,9.3588301   C 146.15424,9.4594627 146.0542,9.4594627 145.85413,9.5600953   C 145.75409,9.5600953 145.55401,9.5600953 145.35394,9.6607279   C 145.15387,9.6607279 144.95379,9.6607279 144.65368,9.6607279   C 144.25353,9.6607279 143.85338,9.6607279 143.3532,9.4594627   C 142.95305,9.2581976 142.5529,9.0569324 142.15275,8.6544021   C 141.85264,8.3525043 141.55253,7.949974 141.35246,7.4468111   C 141.05234,6.9436482 140.95231,6.4404853 140.95231,5.7360572   C 140.95231,5.2328943 141.05234,4.7297314 141.25242,4.2265685   C 141.45249,3.7234055 141.7526,3.3208752 142.05271,2.9183449   C 142.35283,2.6164471 142.75297,2.3145494 143.25316,2.1132842   C 143.75335,1.9120191 144.25353,1.8113865 144.75372,1.8113865   C 144.95379,1.8113865 145.15387,1.8113865 145.35394,1.8113865   C 145.55401,1.9120191 145.65405,1.9120191 145.75409,2.0126516   C 145.95416,2.0126516 146.0542,2.1132842 146.15424,2.1132842   C 146.25427,2.1132842 146.35431,2.2139168 146.45435,2.2139168   C 146.65442,2.2139168 146.75446,2.1132842 146.75446,2.1132842   C 146.8545,2.0126516 146.95453,2.0126516 146.95453,1.9120191   L 147.15461,1.9120191   L 147.15461,4.1259359   L 147.05457,4.1259359   C 146.95453,3.8240381 146.8545,3.5221404 146.75446,3.3208752   C 146.65442,3.0189775 146.55439,2.8177123 146.35431,2.6164471   C 146.15424,2.415182 145.95416,2.2139168 145.65405,2.1132842   C 145.45398,2.0126516 145.05383,1.9120191 144.65368,1.9120191   C 144.25353,1.9120191 143.95342,2.0126516 143.65331,2.1132842   C 143.45323,2.2139168 143.25316,2.3145494 143.05309,2.5158146   C 142.85301,2.7170797 142.65294,3.0189775 142.5529,3.2202426   C 142.45286,3.5221404 142.35283,3.7234055 142.35283,4.0253033   C 142.25279,4.327201 142.25279,4.6290988 142.25279,4.9309965   C 142.15275,5.2328943 142.15275,5.534792 142.15275,5.7360572   C 142.15275,6.5411178 142.25279,7.1449133 142.35283,7.6480762   C 142.45286,8.1512392 142.65294,8.5537695 142.85301,8.7550347   C 143.05309,9.0569324 143.3532,9.2581976 143.65331,9.3588301   C 143.95342,9.4594627 144.25353,9.5600953 144.65368,9.5600953   C 145.15387,9.5600953 145.55401,9.4594627 145.85413,9.3588301   C 146.0542,9.2581976 146.35431,9.0569324 146.55439,8.8556672   C 146.65442,8.6544021 146.8545,8.3525043 146.95453,8.0506066   C 146.95453,7.8493414 147.05457,7.5474437 147.15461,7.2455459   L 147.25465,7.2455459   L 147.25465,9.5600953   z "
     clip-path="url(#clipEmfPath2)"
     style="fill:#000000;fill-rule:evenodd;fill-opacity:1;stroke:none;" />
  <path
     id="path35"
     d="  M 152.15646,9.3588301   L 152.15646,9.3588301   L 153.35691,9.3588301   L 153.35691,2.1132842   L 152.15646,2.1132842   L 152.15646,1.9120191   L 158.25873,1.9120191   L 158.25873,3.8240381   L 158.15869,3.8240381   C 158.05865,3.5221404 157.95862,3.3208752 157.85858,3.0189775   C 157.75854,2.8177123 157.55847,2.7170797 157.45843,2.5158146   C 157.25836,2.415182 157.15832,2.3145494 156.95825,2.2139168   C 156.75817,2.1132842 156.45806,2.1132842 156.15795,2.1132842   L 154.45732,2.1132842   L 154.45732,5.4341594   L 155.15758,5.4341594   C 155.35765,5.4341594 155.55773,5.3335269 155.65776,5.3335269   C 155.85784,5.3335269 155.95787,5.2328943 156.15795,5.1322617   C 156.25799,4.9309965 156.35802,4.8303639 156.45806,4.6290988   C 156.45806,4.4278336 156.5581,4.1259359 156.65813,3.8240381   L 156.75817,3.8240381   L 156.75817,7.1449133   L 156.65813,7.1449133   C 156.5581,6.9436482 156.5581,6.742383 156.45806,6.5411178   C 156.45806,6.3398527 156.35802,6.2392201 156.25799,6.0379549   C 156.15795,5.9373224 156.05791,5.7360572 155.85784,5.6354246   C 155.7578,5.6354246 155.55773,5.534792 155.25762,5.534792   L 154.45732,5.534792   L 154.45732,9.3588301   L 156.45806,9.3588301   C 156.85821,9.3588301 157.15832,9.3588301 157.35839,9.157565   C 157.65851,8.9562998 157.85858,8.7550347 158.05865,8.5537695   C 158.15869,8.3525043 158.25873,8.0506066 158.35877,7.8493414   C 158.4588,7.5474437 158.55884,7.3461785 158.55884,7.2455459   L 158.65888,7.2455459   L 158.65888,9.5600953   L 152.15646,9.5600953   L 152.15646,9.3588301   z "
     clip-path="url(#clipEmfPath2)"
     style="fill:#000000;fill-rule:evenodd;fill-opacity:1;stroke:none;" />
</svg>
