<svg width="500" height="84" viewBox="0 0 500 84" fill="none" xmlns="http://www.w3.org/2000/svg">
<path d="M160.356 58.6473C160.356 49.5597 163.124 42.296 168.676 36.8559C174.227 31.4161 181.651 28.6961 190.963 28.6961C199.331 28.6961 205.955 30.904 210.834 35.3041C215.715 39.7041 218.146 45.7039 218.146 53.2556C218.146 62.6634 215.458 70.0393 210.066 75.3831C204.675 80.7268 197.235 83.3988 187.779 83.3988C179.331 83.3988 172.66 81.175 167.732 76.727C162.82 72.2631 160.356 66.2474 160.356 58.6473ZM190.499 42.4717C187.299 42.4717 184.851 43.9438 183.107 46.9039C181.379 49.8477 180.515 54.0235 180.515 59.3994C180.515 62.7435 181.139 65.2232 182.371 66.8551C183.603 68.4712 185.507 69.2872 188.099 69.2872C191.107 69.2872 193.491 67.7992 195.267 64.8391C197.043 61.8632 197.939 57.8793 197.939 52.8716C197.939 49.4157 197.315 46.8079 196.083 45.0799C194.851 43.3357 192.995 42.4717 190.499 42.4717ZM152.756 81.4788C150.788 81.7347 148.884 81.9108 147.06 82.039C145.236 82.1667 143.476 82.231 141.78 82.231C137.077 82.231 133.412 81.2068 130.82 79.1428C128.229 77.0789 126.933 74.1672 126.933 70.4233C126.933 69.735 126.981 68.9191 127.077 68.0071C127.173 67.0793 127.301 66.0074 127.493 64.7912L130.772 41.912H123.557L125.285 30.616H132.469L134.708 14.9684H153.78L151.492 30.616H159.268L157.62 41.912H149.844L146.996 61.6074C146.964 61.7672 146.932 61.9433 146.916 62.1512C146.9 62.3432 146.9 62.6475 146.9 63.0632C146.9 64.4393 147.332 65.4151 148.18 66.0074C149.044 66.5992 150.452 66.9031 152.42 66.9031C153.076 66.9031 153.572 66.9031 153.876 66.8873C154.196 66.8714 154.5 66.8392 154.82 66.8071L152.756 81.4788ZM95.5255 81.5749L96.1816 74.6789C93.9574 77.4311 91.3976 79.5268 88.5018 80.9667C85.5897 82.4067 82.4698 83.1267 79.1258 83.1267C73.782 83.1267 69.6061 81.5907 66.5981 78.5351C63.6063 75.4632 62.1024 71.2071 62.1024 65.7353C62.1024 65.0153 62.1342 64.2631 62.1984 63.4952C62.2623 62.7435 62.3424 61.9592 62.4384 61.1754L66.8381 30.616H86.5338L82.5979 57.8476C82.5019 58.4073 82.4218 58.9996 82.3738 59.5915C82.3258 60.1833 82.3099 60.7914 82.3099 61.4154C82.3099 63.3195 82.8538 64.8075 83.9578 65.8634C85.0459 66.9353 86.6136 67.4632 88.6295 67.4632C91.0457 67.4632 92.9336 66.7433 94.2775 65.2874C95.6374 63.8312 96.5815 61.5114 97.0773 58.3276L101.205 30.616H120.789L113.381 81.5749H95.5255ZM35.0233 81.5749L34.3672 76.7909C31.5832 78.9191 28.7354 80.5189 25.8075 81.607C22.8954 82.6789 19.8556 83.2227 16.6877 83.2227C11.6316 83.2227 7.58382 81.9267 4.54402 79.3348C1.5201 76.7428 0 73.3032 0 69.015C0 63.1755 1.90409 58.8076 5.69599 55.9114C9.4879 53.0156 15.9677 51.1115 25.1355 50.1678C25.8234 50.1035 26.7512 50.0238 27.9512 49.9278C34.479 49.3038 37.7429 47.7357 37.7429 45.1918C37.7429 43.8637 37.1669 42.8077 36.0312 42.0397C34.8951 41.2717 33.327 40.8877 31.3274 40.8877C29.1031 40.8877 27.4232 41.3039 26.2875 42.1358C25.1355 42.9517 24.4794 44.2639 24.2874 46.0399H5.29574C6.11172 40.2638 8.78377 35.9602 13.3115 33.1283C17.8397 30.2963 24.3513 28.888 32.8153 28.888C40.655 28.888 46.639 30.2483 50.7506 32.9842C54.8626 35.7201 56.9107 39.704 56.9107 44.9196C56.9107 45.7999 56.8465 46.8876 56.7187 48.2157C56.5906 49.5438 56.4145 50.9675 56.1586 52.4718L53.2945 70.887C53.1188 71.991 52.9748 72.8712 52.9106 73.5432C52.8308 74.2152 52.7828 74.7432 52.7828 75.1589C52.7828 76.2149 52.9268 77.159 53.2148 77.9749C53.4865 78.7751 53.9348 79.5268 54.5266 80.215V81.5749H35.0233ZM35.919 58.8393C33.855 59.4954 31.1992 60.1833 27.9353 60.9033C22.6233 62.0552 19.9675 64.0553 19.9675 66.9031C19.9675 68.1832 20.4316 69.2071 21.3753 69.9751C22.3194 70.743 23.5674 71.127 25.1192 71.127C28.3514 71.127 30.9112 70.0551 32.7991 67.8952C34.6873 65.7353 35.727 62.7113 35.919 58.8393Z" fill="#0066cc"/>
<path d="M299.927 47.375H320.7L324.446 22.3975L299.927 47.375ZM314.719 82.9211L317.452 64.8996H279.995L282.957 43.8398L324.446 2.5227H348.64L341.99 47.375H350.379L347.742 64.8996H339.352L336.715 82.9211H314.719ZM220.46 82.9211V82.252C220.46 77.8758 220.976 74.0537 222.008 70.7475C223.021 67.4412 224.608 64.5749 226.729 62.1478C228.735 59.9119 231.258 57.5421 234.277 55.0194C237.297 52.497 240.832 49.8405 244.865 47.0312C246.126 46.1332 247.941 44.8908 250.292 43.2858C260.898 36.0425 266.192 30.252 266.192 25.9333C266.192 23.4679 265.389 21.5185 263.765 20.0853C262.141 18.6518 259.924 17.9258 257.114 17.9258C253.579 17.9258 250.884 19.1106 249.05 21.4803C247.234 23.85 246.241 27.4046 246.088 32.1439H224.932C225.314 21.9962 228.487 14.0844 234.449 8.44695C240.431 2.80922 248.591 -2.21169e-05 258.968 -2.21169e-05C268.428 -2.21169e-05 275.881 2.15948 281.366 6.45937C286.851 10.7785 289.603 16.6071 289.603 23.9645C289.603 28.4556 288.666 32.3734 286.794 35.756C284.94 39.1386 281.729 42.5975 277.162 46.1332C275.422 47.5282 271.448 50.0316 265.236 53.6818C259.045 57.3128 253.923 60.5234 249.891 63.3326H287.539L284.557 82.9211H220.46Z" fill="#fa9300"/>
<path d="M478.667 66.7112H497.755C496.123 72.0553 492.923 76.1669 488.139 79.0631C483.371 81.9589 477.371 83.3988 470.139 83.3988C461.58 83.3988 454.812 81.2389 449.852 76.9031C444.876 72.5832 442.396 66.7111 442.396 59.3035C442.396 50.0238 445.1 42.6157 450.508 37.0958C455.916 31.5601 463.163 28.7921 472.251 28.7921C481.227 28.7921 488.059 31.0643 492.747 35.6079C497.435 40.1678 499.771 46.7758 499.771 55.4635C499.771 56.2795 499.754 57.0955 499.706 57.9274C499.658 58.7596 499.579 59.5914 499.483 60.4395H462.363V61.3352C462.363 64.4234 463.115 66.7754 464.619 68.4073C466.107 70.023 468.299 70.839 471.179 70.839C473.115 70.839 474.731 70.4871 476.043 69.7671C477.355 69.0472 478.235 68.0234 478.667 66.7112ZM463.211 50.3598H480.779C480.715 47.3838 479.979 45.0958 478.571 43.496C477.163 41.8799 475.195 41.0797 472.619 41.0797C470.091 41.0797 467.995 41.8958 466.347 43.5119C464.684 45.1438 463.643 47.4156 463.211 50.3598ZM416.681 66.7112H435.768C434.136 72.0553 430.936 76.1669 426.152 79.0631C421.385 81.9589 415.385 83.3988 408.153 83.3988C399.593 83.3988 392.825 81.2389 387.866 76.9031C382.89 72.5832 380.409 66.7111 380.409 59.3035C380.409 50.0238 383.114 42.6157 388.521 37.0958C393.929 31.5601 401.177 28.7921 410.265 28.7921C419.24 28.7921 426.073 31.0643 430.76 35.6079C435.448 40.1678 437.784 46.7758 437.784 55.4635C437.784 56.2795 437.768 57.0955 437.72 57.9274C437.672 58.7596 437.592 59.5914 437.496 60.4395H400.377V61.3352C400.377 64.4234 401.129 66.7754 402.633 68.4073C404.121 70.023 406.313 70.839 409.193 70.839C411.129 70.839 412.745 70.4871 414.057 69.7671C415.369 69.0472 416.249 68.0234 416.681 66.7112ZM401.225 50.3598H418.793C418.729 47.3838 417.993 45.0958 416.585 43.496C415.177 41.8799 413.209 41.0797 410.633 41.0797C408.105 41.0797 406.009 41.8958 404.361 43.5119C402.697 45.1438 401.657 47.4156 401.225 50.3598ZM350.102 81.5749L353.142 61.1433H373.494L370.358 81.5749H350.102Z" fill="#0066cc"/>
</svg>
