<svg width="140" height="44" viewBox="0 0 140 44" fill="none" xmlns="http://www.w3.org/2000/svg">
<path fill-rule="evenodd" clip-rule="evenodd" d="M36.1539 10.3104L44.617 9.92188L38.1209 23.8324C44.1511 18.289 50.3626 22.848 43.8664 35.6965C38.1209 46.9908 21.9969 47.3793 29.3731 31.5001L37.1632 15.2581C38.3278 12.7195 37.7585 12.4345 35.4034 12.4345L36.1539 10.3104ZM40.4501 24.7132C36.7492 24.7132 29.5542 40.6701 32.0906 41.6545C36.2575 43.2087 44.5393 24.7909 40.4501 24.7132ZM63.8724 22.5631L62.8114 24.7132C61.0514 18.6775 52.2001 22.5631 48.0332 31.9145C42.6759 44.8666 52.019 46.9908 56.3928 40.2816C55.5129 44.8666 60.2751 46.6022 67.0818 36.4737L66.0982 35.023C63.5619 39.2195 59.9644 41.9394 61.2326 39.2195L69.204 21.8897L63.8724 22.5631ZM59.9903 24.7132C56.1082 23.8324 49.4826 39.2195 52.3036 40.5665C55.5128 42.0172 64.2607 25.283 59.9903 24.7132ZM72.5426 22.5631L80.514 21.8897L78.1846 27.0445C83.8267 19.0661 89.4688 21.2938 87.0359 26.6559C85.0949 30.8525 80.6175 29.8681 82.7656 25.283C82.5586 23.8324 76.14 30.3344 71.0933 43.7786H65.5548L73.345 27.718C74.3284 25.6716 74.7942 24.2209 71.6885 24.7132L72.5426 22.5631ZM89.3653 22.5631L88.4853 24.7132C91.591 24.2209 91.0993 25.6976 90.1417 27.718L82.3515 43.8823H87.89C92.9369 30.438 99.3554 23.8324 99.5624 25.283C97.4142 29.8681 101.995 30.8265 103.833 26.6559C106.162 21.2938 100.623 19.0661 94.9815 27.0445L97.3108 21.8897L89.3653 22.5631ZM106.369 22.7704L115.013 22.0969L107.534 37.173C104.532 43.2087 112.4 39.2195 118.534 22.6668L124.356 22.0709L116.773 38.1315C115.401 41.1364 118.041 39.1936 121.251 34.7122L122.13 36.0851C113.772 48.9336 109.785 42.8979 111.519 38.8051C104.894 46.9908 98.6825 44.5558 102.772 36.0851L107.353 26.6559C108.336 24.7132 108.233 24.2209 105.696 24.2209L106.369 22.7704ZM136.521 24.8945C132.923 30.0494 137.582 30.9302 139.238 28.3916C140.894 25.9566 139.911 21.9673 135.641 21.9673C130.283 21.9673 128.058 25.283 127.177 28.7801C125.624 35.6965 130.775 34.7122 131.551 37.5358C132.716 41.24 125.418 42.8979 126.013 40.2557C129.817 37.5358 126.013 32.4586 123.58 36.655C121.432 40.3593 124.356 44.0636 128.445 43.7528C132.638 43.4678 135.744 39.8671 136.521 36.0593C137.892 30.1272 131.266 29.4277 131.551 27.4072C131.551 24.2209 136.521 22.7704 136.521 24.8945Z" fill="#04AA61"/>
<path fill-rule="evenodd" clip-rule="evenodd" d="M8.77344 3.98925C12.6556 3.98925 16.9518 3.98925 20.9376 3.98925C19.6693 1.94282 16.9259 0 14.4155 0C11.8792 0 10.1193 1.94282 8.77344 3.98925Z" fill="black"/>
<path fill-rule="evenodd" clip-rule="evenodd" d="M23.1875 3.98947C27.0696 3.98947 33.2034 3.98947 37.1892 3.98947C34.6528 2.04666 33.307 1.55448 29.7096 1.26953C28.0532 1.55448 25.3098 2.15027 23.1875 3.98947Z" fill="black"/>
<path fill-rule="evenodd" clip-rule="evenodd" d="M39.3906 3.98925C43.2728 3.98925 47.7502 3.98925 51.7358 3.98925C50.4936 1.94282 47.0773 0 44.5668 0C42.0304 0 40.2706 1.94282 39.3906 3.98925Z" fill="black"/>
<path fill-rule="evenodd" clip-rule="evenodd" d="M5.30469 9.68846H35.0679L35.456 8.70411L45.7567 8.31554C47.8013 7.92698 46.6367 9.2999 47.1284 9.68846H55.5915L53.0552 5.69922H7.7375L5.30469 9.68846Z" fill="black"/>
<path fill-rule="evenodd" clip-rule="evenodd" d="M1.67969 15.3877H19.6411C17.8295 13.9889 18.1141 13.0045 19.7447 11.3984H4.16427L1.67969 15.3877Z" fill="black"/>
<path fill-rule="evenodd" clip-rule="evenodd" d="M22.2053 11.4238H34.3693C33.6964 12.8745 32.9976 13.8588 34.9646 15.4131H23.2663C21.6099 15.1281 20.6524 14.6359 20.4453 13.6775C20.4712 12.7709 20.937 12.0973 22.2053 11.4238Z" fill="black"/>
<path fill-rule="evenodd" clip-rule="evenodd" d="M24.4319 17.123H34.0595L32.1184 21.0864H23.0859L24.6388 17.8484C24.7165 17.4339 24.6388 17.2267 24.4319 17.123Z" fill="black"/>
<path fill-rule="evenodd" clip-rule="evenodd" d="M0.593843 17.123H22.0751C22.5151 17.123 22.7997 17.4339 22.7997 17.8225L21.1952 21.0864H1.83613C0.852655 20.3871 -0.933134 19.558 0.593843 17.123ZM17.4165 17.9003L17.0801 19.2732C20.2117 19.3768 19.4352 19.5322 20.2117 20.4647L20.8069 19.0141C20.4187 18.3924 20.4187 17.7189 17.4165 17.9003Z" fill="black"/>
<path fill-rule="evenodd" clip-rule="evenodd" d="M4.55469 22.7969H20.3162L18.3751 26.7862H10.1967C7.76393 25.0506 7.19455 24.4289 4.55469 22.7969Z" fill="black"/>
<path fill-rule="evenodd" clip-rule="evenodd" d="M22.338 22.7969H31.3704L29.6106 26.7862H20.5781L22.338 22.7969Z" fill="black"/>
<path fill-rule="evenodd" clip-rule="evenodd" d="M12.2344 28.5195H17.4882L15.6507 32.5347C14.5895 30.9026 13.9943 30.0997 12.2344 28.5195Z" fill="black"/>
<path fill-rule="evenodd" clip-rule="evenodd" d="M17.7578 32.4057H26.9974L28.6537 28.4941H19.5178L17.7578 32.4057Z" fill="black"/>
<path fill-rule="evenodd" clip-rule="evenodd" d="M16.9478 34.2188H26.0839C25.5922 35.7989 25.411 36.3688 25.3074 38.1821H16.0938C16.0938 36.4983 16.3785 35.9284 16.9478 34.2188Z" fill="black"/>
<path fill-rule="evenodd" clip-rule="evenodd" d="M16.2031 39.918H25.5462C25.7531 41.8089 26.426 42.9746 27.5908 43.9331H18.3253C16.876 42.612 16.669 42.0421 16.2031 39.918Z" fill="black"/>
<path fill-rule="evenodd" clip-rule="evenodd" d="M48.4219 22.7969H51.7347L49.1984 25.7241C49.1207 24.7398 48.9137 23.7813 48.4219 22.7969Z" fill="black"/>
<path fill-rule="evenodd" clip-rule="evenodd" d="M43.5846 17.123H60.899C61.9601 17.8743 62.1672 18.3665 61.4943 19.299C58.8803 19.4026 56.0593 19.4804 53.4194 21.1123H47.1044C45.6551 20.0761 44.1798 19.299 42.5234 19.5062L43.5846 17.123Z" fill="black"/>
<path fill-rule="evenodd" clip-rule="evenodd" d="M46.1969 11.3984L44.3594 15.3877H59.2409L56.4975 11.3984H46.1969Z" fill="black"/>
</svg>
