<?xml version="1.0" encoding="utf-8"?>
<!-- Generator: Adobe Illustrator 26.0.1, SVG Export Plug-In . SVG Version: 6.00 Build 0)  -->
<svg version="1.1" id="Layer_1" xmlns="http://www.w3.org/2000/svg" xmlns:xlink="http://www.w3.org/1999/xlink" x="0px" y="0px"
	 viewBox="0 0 92 38" enable-background="new 0 0 92 38" xml:space="preserve">
<linearGradient id="SVGID_1_" gradientUnits="userSpaceOnUse" x1="23.2028" y1="22.8766" x2="32.0677" y2="38.0884" gradientTransform="matrix(1 0 0 -1 0 40)">
	<stop  offset="0" style="stop-color:#196B31"/>
	<stop  offset="1" style="stop-color:#009B56"/>
</linearGradient>
<path fill="url(#SVGID_1_)" d="M32.7,2.3c0,0,0,0.2,0.1,0.3c0.1,0.5,0.5,2.3,0.5,2.7c0.1,0.6,0.2,1.3,0.2,1.9c0,0.6,0.1,1.2,0,1.8
	c0,0.7-0.2,1.5-0.4,2.2c-0.2,0.5-0.4,1-0.6,1.5c-0.8,1.5-2,2.7-3.5,3.6c-0.9,0.5-1.9,0.8-2.9,1c-0.1,0-0.1,0-0.2,0
	c-2.2,0.2-2.8-0.3-3.2-0.5c-0.4-0.2-0.8-0.5-1.1-0.8c-0.2-0.2-0.3-0.5-0.3-0.8c0-0.4,0.1-0.7,0.3-1.1c0.5-0.8,1.3-1.5,2.1-2.1
	c0.2-0.1,0.4-0.3,0.6-0.4c1-0.6,2-1.1,2.2-1.3c0.6-0.4,1.3-0.8,2-1.3c1.1-0.8,2-1.8,2.8-3c0.4-0.5,0.7-1.1,0.9-1.7
	c0.2-0.6,0.3-1.2,0.3-1.8C32.7,2.5,32.7,2.4,32.7,2.3L32.7,2.3z M32,2.7c0.1-0.1,0.2-0.2,0.3-0.3c0,0.2,0,0.3-0.1,0.5
	c-0.1,0.7-0.4,1.4-0.7,2c-0.1,0.3-0.3,0.5-0.5,0.7c-0.6,0.7-1.2,1.4-1.8,2l-0.7,0.6c-0.2,0.2-0.6,0.4-0.9,0.6
	c-0.4,0.3-0.9,0.6-1.3,0.8c-0.4,0.3-1.1,0.6-1.7,0.9c-0.5,0.3-0.9,0.5-1,0.6c-0.9,0.5-1.8,1.3-2.5,2.1c-0.2,0.3-0.4,0.6-0.5,0.9
	c0,0.1,0,0.1-0.1,0.2l-0.1-0.2c-0.1-0.2-0.2-0.4-0.3-0.7C20,12.9,20,12.3,20,11.7c0.1-0.4,0.1-0.7,0.3-1.1c0.2-0.4,0.4-0.8,0.6-1.1
	c0.4-0.5,0.9-1,1.4-1.4C22.5,8,22.8,7.8,23,7.7c0.5-0.3,1-0.5,1.5-0.7c0.4-0.2,0.9-0.3,1.3-0.5c1-0.4,1.9-0.9,2.9-1.4
	c0.6-0.3,1.2-0.7,1.7-1.1c0.3-0.2,0.5-0.4,0.7-0.5c0.2-0.2,0.5-0.4,0.6-0.5C31.8,2.9,31.9,2.8,32,2.7"/>
<linearGradient id="SVGID_00000082358946302987690200000003505739355270292397_" gradientUnits="userSpaceOnUse" x1="10.9035" y1="26.0915" x2="35.5259" y2="26.0915" gradientTransform="matrix(1 0 0 -1 0 40)">
	<stop  offset="0" style="stop-color:#F0811E"/>
	<stop  offset="0.14" style="stop-color:#F0811E"/>
	<stop  offset="1" style="stop-color:#F7A418"/>
</linearGradient>
<path fill="url(#SVGID_00000082358946302987690200000003505739355270292397_)" d="M19.3,7.4C24.7,6,30.2,3.2,32.9,0
	c1.7,2,3.3,9.9,2.3,15.2c-1.2,6.4-5.4,11.2-10.9,12.6l-1.6-10.1l-0.1-0.1c1.3,0.6,2.9,0.7,4.8,0.1c3.3-1,6.2-4,6.6-7.7
	c0.4-3.1-0.5-7.6-1.3-9c-1.3,1.9-5,4.3-8,5.3c-3.2,1.1-5.3,2.9-5.4,5.6c-0.1,1.9,0.3,2.5,0.8,3.3c0.2,0.3,0.4,0.5,0.6,0.8l-1.1,0
	l-2.3,11.6c-3.1-1.3-5.5-4.4-6.2-8.1C10,14.1,13.3,9,19.3,7.4"/>
<linearGradient id="SVGID_00000036969127258824447290000012214976516666676397_" gradientUnits="userSpaceOnUse" x1="48.6371" y1="16.4333" x2="45.885" y2="31.9024" gradientTransform="matrix(1 0 0 -1 0 40)">
	<stop  offset="0" style="stop-color:#007337"/>
	<stop  offset="0.6" style="stop-color:#318D41"/>
	<stop  offset="1" style="stop-color:#50B158"/>
</linearGradient>
<path fill="url(#SVGID_00000036969127258824447290000012214976516666676397_)" d="M49.8,9.3L47.4,16c-0.4,1.1-0.8,2.5-1.1,3.8h0
	c-0.3-1.3-0.7-2.6-1.1-3.8l-2.4-6.6h-3.9l5.3,14.3h4.1l5.2-14.3L49.8,9.3z"/>
<linearGradient id="SVGID_00000109016403371875821240000015691691618179445695_" gradientUnits="userSpaceOnUse" x1="62.557" y1="16.2677" x2="59.4473" y2="31.5653" gradientTransform="matrix(1 0 0 -1 0 40)">
	<stop  offset="0" style="stop-color:#007337"/>
	<stop  offset="0.6" style="stop-color:#318D41"/>
	<stop  offset="1" style="stop-color:#50B158"/>
</linearGradient>
<path fill="url(#SVGID_00000109016403371875821240000015691691618179445695_)" d="M63,9.3l-4.7,6.1V9.3h-3.4l-0.1,0v14.3h3.5v-6.5
	l4.7,6.5h4.6l-5.8-7.4l5.4-6.9H63z"/>
<linearGradient id="SVGID_00000172401517789865505030000007897926328900255913_" gradientUnits="userSpaceOnUse" x1="75.5486" y1="16.1232" x2="72.1742" y2="32.0921" gradientTransform="matrix(1 0 0 -1 0 40)">
	<stop  offset="0" style="stop-color:#007337"/>
	<stop  offset="0.6" style="stop-color:#318D41"/>
	<stop  offset="1" style="stop-color:#50B158"/>
</linearGradient>
<path fill="url(#SVGID_00000172401517789865505030000007897926328900255913_)" d="M74.3,9c-2.8,0-5.2,0.8-6.4,3.4
	C67.3,13.6,67,15,67,16.4c0,1.4,0.3,2.8,0.9,4.1c1.3,2.6,3.7,3.4,6.4,3.4h0.1c1.8,0,3.7-0.2,5.5-0.5v-7.1h-3.6v4.1
	c-0.4,0-0.8,0-1.2,0.1h-0.4c-0.5,0-1-0.1-1.5-0.3c-0.5-0.2-0.9-0.5-1.3-0.9c-0.4-0.4-0.6-0.8-0.8-1.3c-0.2-0.5-0.3-1-0.3-1.5
	c0-2.1,1.5-4.1,3.9-4.1c1.7,0,3.9,0.3,5.2,0.9v-3.2C78.1,9.4,76.3,9,74.3,9L74.3,9z"/>
<path fill-rule="evenodd" clip-rule="evenodd" fill="#127933" d="M61.5,33.4c-0.2,0.5-0.3,1-0.3,1.5c0,0.4,0,0.8,0.2,1.2
	c0.1,0.4,0.3,0.7,0.6,1c0.3,0.3,0.6,0.5,1,0.6c0.4,0.1,0.7,0.2,1.1,0.2c0.4,0,0.8,0,1.1-0.2c0.4-0.1,0.7-0.4,1-0.6
	c0.5-0.6,0.8-1.4,0.8-2.3c0-0.8-0.3-1.6-0.8-2.3c-0.3-0.3-0.6-0.5-1-0.6c-0.4-0.1-0.7-0.2-1.1-0.2c-0.4,0-0.9,0.1-1.3,0.2
	c-0.3,0.1-0.5,0.3-0.8,0.5C61.9,32.8,61.7,33.1,61.5,33.4z M62.5,34.9L62.5,34.9L62.5,34.9L62.5,34.9z M63,33.4
	c-0.3,0.4-0.5,1-0.5,1.5c0,0.6,0.1,1.1,0.5,1.5c0.1,0.2,0.3,0.3,0.5,0.4c0.2,0.1,0.4,0.1,0.6,0.1c0.2,0,0.4,0,0.6-0.1
	c0.2-0.1,0.4-0.2,0.5-0.4c0.3-0.4,0.5-1,0.5-1.6c0-0.5-0.1-1.1-0.4-1.5c-0.2-0.2-0.3-0.3-0.5-0.4c-0.2-0.1-0.4-0.1-0.6-0.1
	c-0.2,0-0.4,0-0.6,0.1C63.3,33.1,63.1,33.2,63,33.4z M62.7,31.6h0.5c0-0.1,0-0.2,0.1-0.3c0,0,0.1,0,0.1-0.1c0,0,0.1,0,0.1,0
	c0.2,0,0.4,0.1,0.5,0.1c0.2,0.1,0.4,0.2,0.5,0.2c0.1,0,0.2,0,0.3,0c0.1,0,0.2,0,0.3-0.1c0.1,0,0.2-0.1,0.2-0.2
	c0.2-0.2,0.2-0.5,0.2-0.8h-0.5c0,0.1,0,0.2-0.1,0.3c-0.1,0.1-0.1,0.1-0.2,0.1c-0.2,0-0.3-0.1-0.5-0.1c-0.1-0.1-0.3-0.1-0.4-0.2
	c-0.1,0-0.2,0-0.3,0c-0.1,0-0.2,0-0.3,0c-0.1,0-0.2,0.1-0.2,0.2c-0.1,0.2-0.2,0.4-0.2,0.7V31.6z M14.8,35.7v-1h2.6v2.4
	c-0.3,0.3-0.7,0.5-1.1,0.6c-0.5,0.2-0.9,0.3-1.4,0.3c-0.6,0-1.1-0.1-1.6-0.4c-0.5-0.3-0.8-0.6-1-1.1c-0.2-0.5-0.4-1-0.3-1.6
	c0-0.6,0.1-1.1,0.4-1.7c0.3-0.5,0.6-0.9,1.1-1.1c0.4-0.2,0.9-0.3,1.4-0.3c0.6,0,1.2,0.1,1.7,0.5c0.4,0.3,0.7,0.8,0.8,1.3l-1.2,0.2
	c-0.1-0.3-0.2-0.5-0.5-0.7c-0.3-0.2-0.6-0.3-0.9-0.3c-0.2,0-0.5,0-0.7,0.1c-0.2,0.1-0.4,0.2-0.6,0.4c-0.3,0.4-0.5,0.9-0.5,1.5
	c0,0.6,0.1,1.1,0.5,1.6c0.2,0.2,0.3,0.3,0.6,0.4c0.2,0.1,0.4,0.1,0.7,0.1c0.3,0,0.5-0.1,0.7-0.2c0.2-0.1,0.5-0.2,0.6-0.4v-0.8
	L14.8,35.7z M0,31.9l2.1,6h1.3l2.1-6H4.2l-1.4,4.4l-1.5-4.4H0z M6.1,31.9v6h1.2v-1.8l1-1l1.6,2.8h1.5l-2.3-3.6l2.2-2.3H9.7l-2.4,2.6
	v-2.6H6.1z M20.7,31.9v6h4.5v-1h-3.3v-1.6h3v-1h-3v-1.3h3.2v-1H20.7z M26.3,37.9V32h1.2v4.9h3v1H26.3z M31.3,31.9v6h4.5v-1h-3.3
	v-1.6h3v-1h-3v-1.3h3.2v-1H31.3z M36.8,37.9v-6H38v2.6l2.4-2.6H42l-2.2,2.3l2.3,3.6h-1.5L39,35.1l-1,1v1.8H36.8z M44.1,32.9v5h1.2
	v-5H47v-1h-4.7v1H44.1z M47.8,37.9v-6h2.5c0.5,0,0.9,0,1.4,0.2c0.3,0.1,0.5,0.3,0.7,0.6c0.2,0.3,0.3,0.6,0.3,0.9
	c0,0.4-0.1,0.8-0.4,1.1c-0.3,0.3-0.7,0.5-1.2,0.5c0.2,0.1,0.5,0.3,0.6,0.5c0.3,0.3,0.5,0.6,0.7,1l0.7,1.2h-1.4l-0.9-1.3
	c-0.2-0.3-0.4-0.6-0.6-0.9c-0.1-0.1-0.2-0.2-0.4-0.3c-0.2-0.1-0.4-0.1-0.6-0.1H49v2.5L47.8,37.9z M49,34.5h0.9c0.4,0,0.7,0,1.1-0.1
	c0.1,0,0.3-0.1,0.3-0.3c0.1-0.1,0.1-0.3,0.1-0.4c0-0.2,0-0.3-0.2-0.5c-0.1-0.1-0.3-0.2-0.4-0.2h-0.9H49L49,34.5z M53.7,31.9v6h1.2
	v-6H53.7z M57.5,37.9l-2.1-6h1.3l1.5,4.4l1.4-4.4h1.3l-2.1,6H57.5z M67.9,37.9v-6h2.5c0.5,0,0.9,0,1.4,0.2c0.3,0.1,0.5,0.3,0.7,0.6
	c0.2,0.3,0.3,0.6,0.3,0.9c0,0.4-0.1,0.8-0.4,1.1c-0.3,0.3-0.7,0.5-1.2,0.5c0.2,0.1,0.5,0.3,0.6,0.5c0.3,0.3,0.5,0.6,0.7,1l0.7,1.2
	h-1.4L71,36.6c-0.2-0.3-0.4-0.6-0.6-0.9c-0.1-0.1-0.2-0.2-0.4-0.3c-0.2-0.1-0.4-0.1-0.6-0.1h-0.2v2.5L67.9,37.9z M69.1,34.5H70
	c0.4,0,0.7,0,1.1-0.1c0.1,0,0.3-0.1,0.3-0.3c0.1-0.1,0.1-0.3,0.1-0.4c0-0.2,0-0.3-0.2-0.5c-0.1-0.1-0.3-0.2-0.4-0.2h-0.9h-0.9
	L69.1,34.5z M76.6,34.7v1l1.4,0v0.8c-0.2,0.2-0.4,0.3-0.6,0.4c-0.2,0.1-0.5,0.1-0.7,0.2c-0.2,0-0.5,0-0.7-0.1
	c-0.2-0.1-0.4-0.2-0.6-0.4c-0.3-0.5-0.5-1-0.5-1.6c0-0.5,0.1-1.1,0.5-1.5c0.2-0.2,0.4-0.3,0.6-0.4c0.2-0.1,0.4-0.1,0.7-0.1
	c0.3,0,0.6,0.1,0.9,0.3c0.2,0.2,0.4,0.4,0.5,0.7l1.2-0.2c-0.1-0.5-0.4-1-0.8-1.3c-0.5-0.3-1.1-0.5-1.7-0.5c-0.5,0-1,0.1-1.4,0.3
	c-0.5,0.2-0.9,0.6-1.1,1.1c-0.3,0.5-0.4,1.1-0.4,1.7c0,0.5,0.1,1.1,0.3,1.6c0.2,0.5,0.6,0.9,1,1.1c0.5,0.3,1.1,0.4,1.6,0.4
	c0.5,0,1-0.1,1.4-0.3c0.4-0.1,0.8-0.4,1.1-0.6v-2.4H76.6z M80.3,31.9h1.2v3.2c0,0.3,0,0.7,0,1c0,0.2,0.2,0.4,0.4,0.6
	c0.2,0.2,0.5,0.2,0.8,0.2c0.3,0,0.5-0.1,0.8-0.2c0.2-0.1,0.3-0.3,0.3-0.5c0-0.3,0.1-0.7,0.1-1v-3.3H85v3.1c0,0.5,0,1-0.1,1.5
	c-0.1,0.3-0.2,0.5-0.4,0.7c-0.2,0.2-0.4,0.4-0.7,0.5c-0.4,0.1-0.7,0.2-1.1,0.2c-0.4,0-0.9,0-1.3-0.2c-0.3-0.1-0.5-0.3-0.7-0.5
	c-0.2-0.2-0.3-0.4-0.3-0.7c-0.1-0.5-0.1-1-0.1-1.5V31.9z M88.4,31.9h-2.2l0,6h2.2c0.4,0,0.7,0,1.1-0.1c0.3-0.1,0.6-0.3,0.9-0.5
	c0.3-0.3,0.5-0.7,0.6-1.1c0.1-0.4,0.2-0.8,0.2-1.3c0-0.5-0.1-1-0.2-1.4c-0.1-0.4-0.3-0.7-0.6-1c-0.2-0.3-0.6-0.4-0.9-0.5
	C89.2,32,88.8,31.9,88.4,31.9z M87.4,36.9v-3.9l0.5,0c0.3,0,0.7,0,1,0.1c0.2,0,0.4,0.1,0.5,0.3c0.2,0.2,0.3,0.4,0.3,0.6
	c0.1,0.3,0.1,0.7,0.1,1.1c0,0.4,0,0.7-0.1,1.1c-0.1,0.2-0.2,0.4-0.3,0.6c-0.1,0.1-0.3,0.2-0.5,0.3c-0.2,0-0.5,0.1-0.7,0.1H87.4z"/>
</svg>
