<svg data-name="Logo Antalis" xmlns="http://www.w3.org/2000/svg" width="126.261" height="40"><path data-name="Tracé 4" d="M38.138 39.637V24.693a8.827 8.827 0 00-2.407-6.493 8.5 8.5 0 00-6.151-2.225 8.587 8.587 0 00-6.843 3.056v-2.76h-2.455v23.375h2.455v-14.5c0-4.411 2.407-6.98 6.549-6.98s6.4 2.473 6.4 6.98v14.5h2.455z" fill="#2e2057"/><path data-name="Tracé 5" d="M45.446 11.096v5.16h6.473v2.034h-6.473v14.677c0 2.893.881 4.65 3.194 4.65a6.9 6.9 0 002.559-.372l.123-.057.322 2-.085.029a8.762 8.762 0 01-3.2.573 5 5 0 01-3.962-1.652c-1.061-1.27-1.441-3.208-1.441-5.548V18.334h-3.832v-2.078h3.829v-4.211z" fill="#2e2057"/><path data-name="Tracé 6" d="M97.8 37.67a7.925 7.925 0 01-5.838 2.129 14.337 14.337 0 01-6.5-1.642l-.455-.239-.01-2.9 1.28.869a10.419 10.419 0 005.687 1.614c2.957 0 5.307-1.49 5.307-4.669a3 3 0 00-1.5-2.75 8.96 8.96 0 00-1.763-.821c-.692-.248-1.431-.458-2.161-.687-2.919-.869-6.606-2.034-6.606-6.57 0-3.934 3.44-6.083 7.269-6.083a12.882 12.882 0 013.886.621 12.713 12.713 0 011.763.707v2.579a19.813 19.813 0 00-2.18-1.022 11.22 11.22 0 00-3.469-.573c-3.09 0-4.909 1.6-4.909 3.781 0 2.616 2.066 3.428 4.559 4.221.521.172 1.223.344 1.971.582a12.871 12.871 0 012.425 1.011 5.5 5.5 0 013.071 5.013 6.9 6.9 0 01-1.829 4.832" fill="#2e2057"/><path data-name="Rectangle 3167" fill="#2e2057" d="M72.761 7.362h2.474v32.275h-2.474z"/><path data-name="Rectangle 3168" fill="#2e2057" d="M79.528 16.262h2.464v23.376h-2.464z"/><path data-name="Tracé 7" d="M15.003 24.187c0-4.536-2.587-6.169-5.943-6.169a10.26 10.26 0 00-6.16 1.986l-.948-1.678a12.823 12.823 0 017.772-2.359c4.379 0 7.7 2.349 7.7 7.658v12.118c-1.848 2.3-5.08 4.259-9.971 4.259-4.777 0-7.449-2.416-7.449-6.455 0-4.421 3.023-6.694 9.43-6.923l5.563-.153v-2.282zM8.245 37.995c-3.241 0-5.658-1.614-5.658-4.6 0-3.247 2.663-4.765 7-4.918l5.421-.172-.028 6.608a9.808 9.808 0 01-6.739 3.084" fill="#2e2057" fill-rule="evenodd"/><path data-name="Tracé 8" d="M67.292 24.187c0-4.536-2.587-6.169-5.943-6.169a10.283 10.283 0 00-6.16 1.986l-.948-1.678a12.831 12.831 0 017.781-2.359c4.369 0 7.7 2.349 7.7 7.658v12.118c-1.848 2.3-5.09 4.259-9.971 4.259-4.777 0-7.449-2.416-7.449-6.455 0-4.421 3.023-6.694 9.43-6.923l5.563-.153zm-6.748 13.808c-3.251 0-5.658-1.614-5.658-4.6 0-3.247 2.663-4.765 7-4.918l5.412-.172-.028 6.608a9.8 9.8 0 01-6.729 3.084" fill="#2e2057" fill-rule="evenodd"/><path data-name="Tracé 9" d="M102.747 11.85a11.757 11.757 0 1111.752 11.85 11.8 11.8 0 01-11.752-11.85" fill="#e6007e" fill-rule="evenodd"/><path data-name="Tracé 10" d="M114.509 14.571h1.611l-.379-1.365h-1.08l.36-3.027h.436l1.933 6.1h1.706l1.63-6.1h.389l.711 6.1h1.744l-1.1-8.919h-2.625l-1.613 5.827-1.924-5.825h-2.436l-1.232 8.919h1.659z" fill="#fff"/><path data-name="Tracé 11" d="M109.686 11.057V8.732h3.2l.161-1.365h-7.939v1.365h2.786v7.544h4.075l.171-1.356h-2.455v-2.492h2.331l.171-1.356z" fill="#fff"/></svg>